<?xml version="1.0" standalone="no"?>
<!DOCTYPE svg PUBLIC "-//W3C//DTD SVG 20010904//EN"
 "http://www.w3.org/TR/2001/REC-SVG-20010904/DTD/svg10.dtd">
<svg version="1.0" xmlns="http://www.w3.org/2000/svg"
 width="700.000000pt" height="700.000000pt" viewBox="0 0 700.000000 700.000000"
 preserveAspectRatio="xMidYMid meet">
<metadata>
Created by potrace 1.14, written by Peter Selinger 2001-2017
</metadata>
<g transform="translate(0.000000,700.000000) scale(0.100000,-0.100000)"
fill="#000000" stroke="none">
<path d="M758 5332 l-58 -3 0 -259 0 -260 588 -2 587 -3 2 -1503 c0 -826 3
-1508 6 -1515 3 -9 65 -12 253 -11 137 1 254 2 259 3 7 1 10 513 9 1516 l-1
1515 588 0 589 0 0 260 0 260 -27 0 c-136 3 -2752 4 -2795 2z"/>
<path d="M4313 5332 c-68 -3 -66 -2 -103 -97 -20 -53 -345 -827 -369 -880 -26
-56 -34 -85 -24 -86 33 -4 237 -3 243 1 4 3 19 30 33 61 79 180 216 311 363
349 38 9 651 16 660 7 4 -4 -17 -37 -114 -177 -25 -36 -115 -166 -200 -290
-86 -124 -175 -253 -199 -287 -172 -249 -263 -382 -263 -386 0 -2 24 -20 53
-39 l53 -35 41 37 c60 52 164 105 263 132 120 32 295 32 395 0 80 -25 179 -86
223 -137 129 -146 216 -418 215 -671 -2 -288 -95 -532 -274 -715 -101 -103
-214 -170 -345 -205 -70 -19 -223 -25 -291 -13 -26 5 -61 12 -78 15 -16 3 -64
20 -105 37 -232 100 -403 300 -402 468 1 43 17 109 27 109 2 0 18 -15 37 -34
42 -42 100 -59 193 -59 102 0 174 43 236 138 47 74 59 115 64 224 15 280 -260
467 -545 371 -215 -72 -366 -310 -368 -578 -1 -206 70 -366 237 -532 189 -189
454 -317 761 -369 101 -17 155 -20 280 -17 85 2 169 6 185 9 17 3 46 8 65 12
99 17 280 80 391 136 103 51 243 153 329 239 219 217 318 451 317 750 0 416
-157 780 -423 981 -170 128 -417 175 -669 125 -44 -9 -142 -39 -167 -53 -31
-15 -36 -7 -13 22 17 22 151 205 236 323 59 81 297 409 384 527 28 39 84 116
125 173 147 203 221 286 340 380 14 11 22 23 19 27 -7 6 -1694 13 -1816 7z"/>
</g>
</svg>
