<?xml version="1.0" encoding="utf-8"?>
<!-- Generator: Adobe Illustrator 25.0.1, SVG Export Plug-In . SVG Version: 6.00 Build 0)  -->
<svg version="1.1" id="Layer_1" xmlns="http://www.w3.org/2000/svg" xmlns:xlink="http://www.w3.org/1999/xlink" x="0px" y="0px"
	 viewBox="0 0 353.7 848.1" style="enable-background:new 0 0 353.7 848.1;" xml:space="preserve">
<style type="text/css">
	.st0{fill-rule:evenodd;clip-rule:evenodd;fill:#080504;}
</style>
<path class="st0" d="M120.9,100.7c-0.6,13.2-8.7,23-19,27.5c-4.1,1.8-8.5,2.8-13,2.8c-16,0-29.4-12.3-29.4-31.6V67.7h61.4V100.7z
	 M234.3,99.4c0,19.3-13.4,31.6-29.4,31.6c-4.5,0-8.9-1-13-2.8c-10.2-4.5-18.4-14.3-19-27.5V67.7h61.4V99.4z M0.8,8v91.4
	c0,54,39.8,91.4,88.2,91.4c4.4,0,8.7-0.3,13-0.9c16.8-2.4,32.3-9.5,45-19.8c12.7,10.4,28.1,17.4,45,19.8c4.2,0.6,8.6,0.9,13,0.9
	c48.4,0,88.2-37.3,88.2-91.4V8H0.8z M128.9,438.1c0-38.8-25.4-57.9-57.9-57.9H59.6V504H0V232.9h59.6v86.6
	c39.5,0,64.9-19.6,64.9-58.4v-28.2h59.6v28.2c0,37-14.9,65.5-36.4,85.6c23.7,20,40.8,50.8,40.8,90.9V504h-59.6V438.1z M233.4,504.3
	h59.6V232.9h-59.6V504.3z M233.4,620.5h120.3v-60.6H233.4V620.5z M-0.8,750h58.6c0,19.3,19,31.5,37,31.5s37-12.2,37-31.5
	c0-23.6-21.1-35-37-35c-48.2,0-93.5-36.8-93.5-95c0-53.8,45.2-90.6,93.5-90.6s93.4,37.2,93.4,91h-58.6c0-19.3-18.9-31.5-34.9-31.5
	c-15.9,0-34.9,11.8-34.9,31.1c0,23.6,18.9,35.4,34.9,35.4c48.2,0,95.6,36.3,95.6,94.5c0,53.8-45.2,91-95.6,91S-0.8,803.9-0.8,750z"
	/>
</svg>
