<?xml version="1.0" encoding="UTF-8" standalone="no"?>
<svg
   xmlns:dc="http://purl.org/dc/elements/1.1/"
   xmlns:cc="http://creativecommons.org/ns#"
   xmlns:rdf="http://www.w3.org/1999/02/22-rdf-syntax-ns#"
   xmlns:svg="http://www.w3.org/2000/svg"
   xmlns="http://www.w3.org/2000/svg"
   viewBox="120 50 553.70667 387.45334"
   height="387.45334"
   width="453.70667"
   xml:space="preserve"
   id="svg2"
   version="1.1"><metadata
     id="metadata8"><rdf:RDF><cc:Work
         rdf:about=""><dc:format>image/svg+xml</dc:format><dc:type
           rdf:resource="http://purl.org/dc/dcmitype/StillImage" /></cc:Work></rdf:RDF></metadata><defs
     id="defs6" /><g
     transform="matrix(1.3333333,0,0,-1.3333333,0,487.45333)"
     id="g10"><g
       transform="scale(0.1)"
       id="g12"><path
         id="path18"
         style="fill-opacity:1;fill-rule:nonzero;stroke:none"
         d="m 2041.27,1598.12 c -11.02,1.98 -42.3,5.43 -65.31,-13.45 -16.8,-13.8 -28.07,-27.2 -37.12,-37.98 -5.48,-6.51 -10.21,-12.14 -14.65,-15.97 -11.18,-9.66 -22.72,-19.64 -58.87,-22.3 -28.16,-2.05 -53.61,12.98 -77.81,45.95 -27.42,37.35 -51.79,41.64 -72.02,40.91 -12.44,-0.46 -25.34,-1.68 -38.6,-7.62 -11.13,-4.99 -22.52,-13.32 -34.09,-27.36 -26.39,-32.02 -45.61,-51.08 -89.88,-45.74 -35.67,4.31 -48.33,22.14 -59.51,37.87 -3.14,4.4 -6.09,8.56 -9.42,12.26 -2.67,2.96 -5.39,6.25 -8.23,9.66 -12.96,15.66 -29.09,35.14 -53.03,36.57 -20.11,1.19 -42.82,-3.96 -54.59,-7.13 -6.3,12.84 -11.91,26.05 -16.82,39.57 -0.19,0.52 -0.34,1.04 -0.52,1.56 10.27,7.85 36.23,26.05 57.77,27.48 17.9,1.2 37.55,-0.77 59.86,-23.17 4.81,-4.83 9.82,-10.58 15.12,-16.67 19.53,-22.44 41.68,-47.88 70.72,-48.59 2.32,-0.05 4.57,-0.09 6.76,-0.12 1.26,-0.02 2.43,0 3.64,0 1.2,0 2.44,-0.01 3.61,0 10.86,0.13 20.31,1.05 29.4,4.05 1.07,0.36 2.12,0.83 3.18,1.24 1.06,0.41 2.13,0.76 3.18,1.24 10.16,4.58 20.22,12.26 31.7,24.87 1.01,1.1 2.01,2.2 3.04,3.38 0.07,0.09 0.14,0.16 0.22,0.25 0.92,1.06 1.86,2.08 2.79,3.13 6.01,6.81 12.14,13.27 18.78,18.78 1.34,1.12 2.71,2.19 4.1,3.23 1.51,1.12 3.05,2.19 4.61,3.2 0.34,0.22 0.64,0.49 0.98,0.7 1.1,0.68 2.26,1.26 3.42,1.86 0.34,0.17 0.67,0.37 1.01,0.55 0.85,0.45 1.66,0.97 2.53,1.38 0.21,0.09 0.42,0.17 0.63,0.27 2.81,1.3 5.69,2.48 8.77,3.34 5.04,1.41 10.36,2.25 15.88,2.59 1.36,0.08 2.73,0.16 4.12,0.18 11.23,0.14 23.08,-1.85 34.71,-5.97 0.27,-0.09 0.51,-0.22 0.78,-0.32 1.44,-0.55 2.85,-1.14 4.21,-1.77 0.52,-0.23 0.99,-0.53 1.5,-0.78 0.66,-0.32 1.3,-0.67 1.93,-1 0.09,-0.05 0.18,-0.1 0.27,-0.14 1,-0.53 2.07,-1 3.02,-1.58 0.11,-0.06 0.2,-0.15 0.3,-0.21 0.48,-0.29 0.89,-0.65 1.35,-0.95 1.66,-1.06 3.25,-2.19 4.81,-3.37 1.43,-1.09 2.82,-2.21 4.18,-3.39 6.77,-5.82 12.83,-12.54 18.97,-19.55 0.06,-0.07 0.12,-0.14 0.19,-0.21 l 2.31,-2.64 c 0.29,-0.33 0.65,-0.73 0.97,-1.09 1.06,-1.2 2.23,-2.51 3.56,-3.95 6.24,-6.79 15.48,-15.87 27.71,-23.23 0.96,-0.58 1.99,-1.11 2.98,-1.66 0.99,-0.55 1.95,-1.12 2.97,-1.64 8.08,-4.13 17.27,-7.32 27.56,-8.67 1.17,-0.15 2.4,-0.21 3.59,-0.33 1.18,-0.11 2.34,-0.27 3.56,-0.32 5.31,-0.22 10.89,0.04 16.73,0.93 16.04,2.43 32.39,6.33 43.43,18.3 3.12,3.39 6.14,6.72 9.07,9.96 27.22,30.04 46.88,51.75 87.81,51.68 8.86,-0.02 32.47,-7.37 44.16,-12.92 -4.88,-15.47 -10.93,-30.54 -17.98,-45.15 z m -635.73,237.68 c 1.98,3.92 4.46,8.81 7.22,16.13 0.68,1.81 1.46,3.45 2.27,5.01 0.22,0.44 0.46,0.85 0.71,1.27 0.63,1.16 1.31,2.25 2,3.27 0.21,0.31 0.42,0.65 0.64,0.95 0.88,1.23 1.79,2.38 2.7,3.41 0.2,0.22 0.4,0.41 0.6,0.63 0.71,0.77 1.42,1.49 2.11,2.15 0.33,0.31 0.66,0.61 0.98,0.9 0.56,0.48 1.08,0.92 1.59,1.33 0.88,0.7 1.71,1.31 2.45,1.81 0.09,0.06 0.19,0.14 0.29,0.2 1.7,-1.45 4.77,-2.45 8.91,-3.78 4.84,-1.56 10.85,-3.49 15.35,-6.49 4.72,-3.17 7.65,-8.88 10,-13.47 1.88,-3.68 3.49,-6.65 5.91,-8.28 -0.39,-0.41 -0.78,-0.83 -1.19,-1.26 -0.06,-0.06 -0.12,-0.12 -0.17,-0.19 -0.38,-0.39 -0.75,-0.78 -1.12,-1.18 -0.24,-0.26 -0.47,-0.51 -0.71,-0.76 -0.32,-0.35 -0.64,-0.68 -0.95,-1.02 -0.33,-0.35 -0.64,-0.7 -0.95,-1.03 -0.16,-0.17 -0.3,-0.32 -0.43,-0.48 -0.28,-0.3 -0.54,-0.58 -0.78,-0.85 -0.12,-0.14 -0.24,-0.27 -0.36,-0.4 -0.22,-0.25 -0.41,-0.47 -0.58,-0.68 -0.1,-0.1 -0.2,-0.21 -0.27,-0.3 -0.23,-0.27 -0.41,-0.5 -0.5,-0.64 -1.21,-1.77 -1.15,-5.2 -0.96,-7.34 -1.66,-7.24 -16.31,-13.49 -24.22,-16.86 -1.98,-0.86 -3.66,-1.58 -4.84,-2.16 -10.36,-5.13 -14.15,-5.36 -15.56,-4.66 -0.16,0.08 -0.45,0.22 -0.59,0.98 -1.1,5.9 3.09,16.43 8.31,26.55 3.8,5.23 8.55,12.71 13.75,23.08 l -4.5,2.66 c -1.35,-1.96 -8.06,-11.89 -13.89,-23.16 -4.05,-5.5 -6.84,-8.15 -7.64,-8.87 -4.35,-1.88 -9.33,-2.99 -10.29,-2.22 0.01,6.46 1.68,9.76 4.71,15.75 z m -3.65,123.53 c 10.98,33.06 35.06,47.3 42.27,50.92 l 0.02,-0.01 c 0.08,-0.05 8.53,-5.19 12.35,-8.47 5.81,-5 13.6,-16.21 14.97,-23.17 0.14,-0.74 0.48,-1.29 0.74,-1.91 -3.66,-3.11 -12.01,-10.55 -17.21,-17.92 -5.94,-8.46 -11.32,-12.43 -19.22,-14.16 -9.47,-2.09 -21.2,-2.03 -25.14,1.8 -0.23,1.34 1.67,4.53 5.02,8.82 0.26,0.18 0.52,0.37 0.76,0.59 l 24.2,25.56 -3.68,3.74 c -3.55,-3.25 -16.6,-15.46 -24.77,-25.9 -1.12,-0.49 -2.87,-0.58 -4.16,-0.64 -5.02,-0.23 -6.18,0.74 -6.16,0.75 z m 47.77,55.94 c 9.62,13.04 64.79,16.15 83.88,17.22 4.98,0.27 8.78,0.49 10.79,0.73 l 1.2,0.14 c 14.52,1.72 32.58,3.88 39.88,-9.7 11.42,-21.07 31.53,-46.84 40.67,-58.18 -9.64,-7.44 -19.07,-19.24 -24.3,-38.36 -12.38,-0.54 -23.5,1.12 -32.44,3.58 l -11.43,50.85 c 0.39,0.75 0.64,1.69 0.54,2.76 -0.26,3.03 -3.03,5.93 -8.45,8.86 -8.44,4.58 -32.47,-3.52 -54.33,-11.47 -3.11,-1.13 -6.33,-2.3 -7,-2.43 -0.8,-0.16 -1.79,-0.46 -2.89,-0.79 -2.33,-0.7 -5.69,-1.66 -7.53,-1.02 -0.14,0.05 -0.34,0.04 -0.48,0.12 -0.2,0.12 -0.82,0.49 -1.11,2.03 -0.21,1.03 -0.53,2.1 -0.91,3.19 -0.13,0.38 -0.29,0.77 -0.44,1.16 -0.27,0.7 -0.57,1.41 -0.9,2.13 -0.22,0.48 -0.44,0.95 -0.68,1.43 -0.32,0.64 -0.66,1.26 -1.02,1.9 -1.07,1.94 -2.27,3.85 -3.55,5.68 -0.2,0.29 -0.4,0.56 -0.61,0.84 -0.75,1.05 -1.5,2.05 -2.28,3.01 -0.27,0.34 -0.53,0.66 -0.8,0.99 -0.73,0.87 -1.44,1.68 -2.13,2.45 -0.27,0.28 -0.53,0.57 -0.78,0.83 -0.92,0.96 -1.81,1.83 -2.62,2.53 -0.71,0.61 -1.56,1.27 -2.46,1.94 -0.29,0.21 -0.58,0.42 -0.88,0.63 -0.65,0.47 -1.29,0.93 -1.96,1.39 -0.36,0.24 -0.69,0.47 -1.04,0.71 -0.6,0.41 -1.17,0.78 -1.74,1.16 -1.24,0.81 -2.4,1.56 -3.27,2.1 0.23,0.56 0.69,1.07 1.07,1.59 z m 152.6,-157.12 c -4.67,1.8 -9.01,3.71 -12.9,5.58 -5.4,2.56 -13.25,7.36 -21.56,12.43 -18.45,11.26 -30.98,18.61 -36.93,18.07 -7.13,-0.63 -10.12,-2.76 -14.64,-6.03 -1.55,-1.12 -3.34,-2.41 -5.63,-3.87 -9.69,-6.12 -25.16,-30.33 -28.66,-36.63 -1.73,-3.09 -3.12,-4.03 -5.07,-3.91 -1.23,0.07 -2.68,0.55 -4.58,1.19 -1.1,0.37 -2.92,3.93 -4.26,6.53 -2.62,5.13 -5.89,11.52 -11.75,15.44 -1.73,1.16 -3.63,2.11 -5.56,3 -3.76,1.72 -7.7,3.03 -11.1,4.13 -1.11,0.35 -2.31,0.74 -3.42,1.13 -1.3,0.45 -2.47,0.89 -3.15,1.27 0.36,0.68 1.38,2.01 3.98,3.92 2.35,1.73 5.99,3.92 11.77,6.6 7.14,3.33 26.95,19.5 44.43,33.77 10.51,8.58 22.41,18.29 24.45,19.21 0.01,0 0.02,0 0.03,0.01 4.25,1.39 21.38,1.95 26.7,-3.4 2.68,-2.7 10.07,-6.85 20.49,-10.1 9.62,-3.01 21.85,-5.19 35.6,-4.76 -0.33,-1.52 -0.64,-3.07 -0.92,-4.67 -0.43,-2.53 -0.86,-5.07 -1.17,-7.81 -1.78,-16.46 0.12,-34.1 3.85,-51.1 z m 228.88,-252.98 c 0.31,1.09 0.57,2.2 0.88,3.31 0.3,1.1 0.63,2.19 0.87,3.31 1.88,8.46 2.9,17.12 2.92,25.89 0,0.45 -0.06,0.88 -0.06,1.32 -0.02,1.14 -0.11,2.27 -0.17,3.4 -0.06,1.14 -0.1,2.27 -0.16,3.4 -1.15,17.7 -5.98,34.69 -14.35,50.02 -0.55,1 -1.17,1.95 -1.78,2.92 -0.59,0.97 -1.17,1.95 -1.78,2.92 -2.85,4.6 -5.92,9.08 -9.41,13.31 l -1.09,1.26 c -2.4,2.81 -4.87,5.56 -7.52,8.19 -0.82,0.8 -1.71,1.5 -2.55,2.28 -0.83,0.77 -1.69,1.51 -2.53,2.27 -0.85,0.76 -1.67,1.54 -2.54,2.27 -15.24,12.78 -33.13,21.58 -52.4,25.95 -1.12,0.25 -2.23,0.45 -3.35,0.67 -1.11,0.22 -2.22,0.48 -3.35,0.67 -6.96,1.19 -14.05,1.91 -21.26,1.92 -2.76,0.01 -5.46,-0.22 -8.17,-0.39 -1.14,-0.07 -2.26,-0.19 -3.39,-0.27 -1.15,-0.09 -2.28,-0.15 -3.4,-0.28 -19.13,-2.24 -36.92,-8.75 -52.39,-18.54 -0.96,-0.61 -1.89,-1.28 -2.82,-1.92 -0.94,-0.64 -1.9,-1.25 -2.82,-1.91 -8.04,-5.72 -15.37,-12.31 -21.81,-19.71 -0.74,-0.86 -1.43,-1.77 -2.14,-2.66 -0.73,-0.89 -1.45,-1.76 -2.16,-2.67 -13.53,-17.4 -22.52,-38.38 -24.96,-61.32 -0.12,-1.11 -0.14,-2.26 -0.19,-3.39 -0.06,-1.14 -0.14,-2.27 -0.19,-3.4 -0.09,-1.95 -0.3,-3.87 -0.32,-5.84 0,-5.31 0.48,-10.53 1.17,-15.71 0.15,-1.14 0.35,-2.27 0.51,-3.41 0.16,-1.14 0.29,-2.28 0.51,-3.41 1.5,-7.78 3.77,-15.41 6.78,-22.83 -8.93,-2.89 -18.27,-3.68 -29.36,-3.72 -5.52,15.77 -8.36,32.23 -8.32,49.14 0.11,56.51 32.01,105.77 79.01,131.46 3.38,1.85 6.86,3.57 10.39,5.17 19.53,8.84 41.25,13.8 64.13,13.75 23.06,-0.04 45.28,-5.23 65.5,-14.71 3.45,-1.61 6.85,-3.33 10.18,-5.2 11.77,-6.63 22.77,-14.73 32.61,-24.44 28.87,-28.51 44.73,-66.37 44.65,-106.62 -0.04,-19.55 -3.99,-38.7 -11.41,-56.57 -10.27,1.16 -19.44,4.26 -27.46,8.37 2.24,5.11 3.98,10.39 5.5,15.75 z m -2.2,33.8 c 0,-0.43 0.06,-0.84 0.06,-1.27 -0.02,-8.45 -1.08,-16.78 -2.93,-24.92 l -35.39,5.11 c -0.55,0.62 -1.1,1.24 -1.58,1.79 l -2.31,2.64 c -5,5.7 -9.92,11.27 -15.23,16.33 z m -85.13,32.71 48.41,50.13 c 0.81,-0.76 1.69,-1.44 2.48,-2.23 6.76,-6.68 12.47,-14.08 17.31,-21.94 l -59.31,-43.37 c -1.08,6.41 -4.13,12.37 -8.89,17.41 z m -40.12,81.6 c 2.59,0.16 5.18,0.38 7.81,0.37 6.97,-0.01 13.81,-0.71 20.52,-1.88 l -7.63,-68.63 c -4.05,1.13 -8.25,1.87 -12.62,1.88 -1.53,0 -3.01,-0.21 -4.49,-0.35 z m -15.07,-82.61 c 0.9,0.68 1.82,1.31 2.8,1.93 0.97,0.6 1.96,1.14 3.02,1.66 0.34,0.17 0.61,0.39 0.97,0.53 1.72,0.78 3.58,1.39 5.47,1.91 1.11,0.31 2.23,0.57 3.36,0.8 1.12,0.21 2.24,0.38 3.39,0.5 1.36,0.13 2.73,0.22 4.12,0.21 4.13,0 8.12,-0.72 11.88,-1.87 1.15,-0.36 2.19,-0.91 3.28,-1.36 1.08,-0.44 2.24,-0.79 3.26,-1.34 1.34,-0.71 2.56,-1.54 3.77,-2.4 0.85,-0.61 1.78,-1.13 2.57,-1.8 0.08,-0.08 0.13,-0.15 0.2,-0.22 4.24,-3.7 7.08,-8.2 8.55,-13.06 -0.73,0.29 -1.42,0.64 -2.18,0.91 -0.15,0.05 -0.28,0.09 -0.43,0.13 -1.7,0.6 -3.41,1.11 -5.12,1.63 -11.72,3.48 -23.53,4.93 -34.72,4.32 -1.35,-0.07 -2.66,-0.27 -3.98,-0.39 -1.32,-0.14 -2.65,-0.21 -3.95,-0.4 -3.31,-0.5 -6.56,-1.11 -9.69,-1.99 -2.22,-0.62 -4.33,-1.41 -6.41,-2.23 1.92,4.89 5.39,9.14 9.84,12.53 z m -35.79,-29.55 c -6.22,-5.72 -12.03,-12.15 -17.8,-18.8 -0.07,-0.09 -0.14,-0.17 -0.22,-0.26 l -40.05,0.33 c -0.71,5.19 -1.2,10.42 -1.19,15.75 0,1.88 0.19,3.7 0.29,5.55 z m -31.3,71.53 c 6.2,7.18 13.29,13.55 21.06,19.07 l 41.89,-55.56 c -5.14,-3.89 -9.08,-8.89 -11.53,-14.53 z m 12.23,251.73 c 8.5,5.43 16.64,7.58 21.12,8.73 1.12,0.3 2.03,0.53 2.69,0.75 1.2,0.4 3.79,1.07 7.3,1.97 28.62,7.4 54.83,13.91 59.85,24.35 3.1,-2.82 7.45,-6.61 20.37,-9.79 18.03,-4.44 30.03,-3.95 44.13,2.37 2.11,0.94 5.94,2.69 8.18,3.89 16.58,8.96 23.99,34.61 24.3,35.79 0,0.01 0,0.02 0,0.03 l -4.83,0.79 c -0.07,-0.25 -6.52,-24.39 -21.93,-32.72 -16.35,-8.85 -28.55,-10.19 -48.38,-5.3 -12.43,3.06 -16.19,6.49 -19.22,9.24 -0.73,0.69 -1.47,1.31 -2.23,1.89 -2.15,2.69 -9,7.12 -30.12,1.03 -14.78,-4.25 -27.67,1.08 -34.22,6.93 -1.32,1.19 -2.1,2.16 -2.68,2.98 1,2.55 4.95,3.59 8.47,3.98 22.22,2.53 31.99,5.01 33.16,5.08 4.83,0.32 8.06,-2.58 8.06,-2.58 -1.61,5.16 0.03,12.86 0.03,12.86 -1.95,-5.14 -10.33,-7.77 -10.33,-7.77 0,0 -10.69,-1.44 -26.34,-3.32 -10.43,-1.27 -14.74,0.94 -16.54,3.72 -1.41,6.3 -1.17,14.61 6.4,21.35 l 1.85,1.63 -1.51,1.94 c -0.98,1.28 -3.53,5.56 -2.34,8.4 1.08,2.62 5.26,3.66 8.56,4.06 5.01,0.61 10.85,1.23 16.83,1.86 21.25,2.24 35.47,3.91 39.76,6.3 2.04,1.16 4.77,3.54 8.25,6.54 6.51,5.66 15.44,13.42 22.92,15.38 l 2.34,1.34 c 7.61,2.47 15.6,3.52 19.25,3.89 0.71,0.09 1.33,0.14 1.66,0.17 0.16,0 0.32,0.01 0.5,0.04 l 0.3,0.03 h 0.02 c 2.02,-0.66 4.55,-0.84 7.4,-0.98 0.39,-0.01 0.79,-0.04 1.19,-0.06 0.57,-0.03 1.13,-0.06 1.69,-0.1 0.35,-0.03 0.69,-0.06 1.03,-0.09 0.39,-0.04 0.78,-0.07 1.14,-0.12 0.46,-0.06 0.89,-0.14 1.32,-0.21 0.24,-0.05 0.52,-0.08 0.75,-0.14 0.66,-0.14 1.26,-0.32 1.79,-0.55 0.16,-0.07 0.35,-0.29 0.52,-0.43 0.38,-0.3 0.72,-0.72 1.06,-1.28 0.45,-0.74 0.84,-1.69 1.13,-2.75 0.29,-1.04 0.46,-2.22 0.46,-3.5 0.01,-0.25 -0.01,-0.63 -0.04,-1.05 -0.11,-1.56 -0.56,-4.02 -2.19,-5.39 -0.29,-0.26 -0.61,-0.46 -0.98,-0.62 0,0 0,-0.01 -0.02,-0.01 l 0.29,-1.1 0.36,-1.3 0.72,-2.61 c 0.11,0.01 0.91,0.12 2.19,0.35 0.28,0.03 0.58,0.11 0.9,0.17 0.77,0.15 1.72,0.35 2.77,0.59 0.18,0.04 0.4,0.09 0.6,0.14 2.31,0.54 5.17,1.31 8.54,2.38 0.05,0.02 0.1,0.03 0.15,0.05 1.74,0.56 3.61,1.19 5.59,1.92 0,0 0,0 0.02,0 2.21,0.81 4.57,1.75 7.07,2.81 1.02,0.43 2.03,0.85 3.11,1.34 0.51,0.22 1.05,0.47 1.57,0.71 0.14,0.06 0.28,0.13 0.43,0.19 14.32,6.43 31.01,4.28 49.62,-6.15 -0.13,0 -0.27,0 -0.4,0 -5.42,0.17 -11.16,-0.16 -16.3,-0.54 -1,-0.07 -2.01,-0.14 -2.94,-0.21 -2.4,-0.18 -4.56,-0.35 -6.36,-0.45 -8.06,-0.38 -13.94,-4.04 -20.18,-7.92 -1.39,-0.86 -2.83,-1.75 -4.3,-2.62 -7.09,-4.15 -21.66,-1.7 -21.81,-1.68 l -0.71,-4.14 c 0.65,-0.11 16.1,-2.8 24.65,2.19 1.49,0.89 2.96,1.8 4.4,2.69 6,3.74 11.18,6.97 18.15,7.3 1.83,0.09 4.04,0.26 6.48,0.43 5.61,0.43 12.41,0.95 18.57,0.78 2.43,-0.07 4.75,-0.24 6.88,-0.56 1.04,-0.16 2.05,-0.35 2.99,-0.6 -0.66,-0.26 -1.41,-0.64 -2.08,-0.95 -1.25,-0.55 -2.47,-1.07 -3.82,-1.76 -6.15,-3.11 -13.2,-7.49 -20.28,-12.71 -5.02,-3.77 -8.07,-5.82 -12.43,-7.33 -2.06,-0.45 -4.57,-0.8 -8.21,-1.25 -6.83,-0.85 -16.32,1.03 -21.18,3.25 -6.05,2.78 -10.59,0.01 -10.76,-0.11 l 2.21,-3.56 c 0.03,0.04 2.87,1.67 6.79,-0.14 5.52,-2.52 15.8,-4.56 23.47,-3.61 0.04,0.01 0.07,0.01 0.11,0.02 0.2,-9.08 0.3,-69.2 -29.01,-103.35 -34.97,-40.79 -39.8,-70.36 -40.47,-78.46 -0.12,-1.68 -0.55,-3.68 -1.1,-6.21 -2.49,-11.51 -7.03,-32.79 5.13,-81.51 -20.34,9.03 -42.5,13.95 -65.48,13.99 -26.49,0.05 -51.48,-6.3 -73.53,-17.52 -5.53,10.59 -19.79,39.59 -28.33,72.17 -0.52,1.97 -1.01,3.96 -1.49,5.96 -4.15,17.58 -6.43,35.89 -4.59,52.68 0.3,2.77 0.73,5.36 1.18,7.89 0.31,1.8 0.69,3.49 1.08,5.17 0,0 -0.22,0 -0.37,0.01 0.4,0.37 0.62,0.59 0.43,0.24 0.44,1.88 0.88,3.75 1.41,5.49 4.99,16.72 13.45,27.18 22.09,33.86 1.43,1.11 2.86,2.12 4.3,3.03 z m 126.76,175.47 0.35,-0.52 c 0.59,-3.29 2.05,-9.72 5.02,-12.26 2.82,-2.41 4.96,-7.87 7.69,-15.33 0.9,-2.45 1.57,-4.29 2.11,-5.65 -4.08,-0.45 -11.65,-1.53 -19.03,-3.91 -0.98,4.39 -2.89,14.28 -1.75,20.44 1.25,6.71 -1.57,17.66 -5.28,25.28 4.09,-1.94 8.54,-4.68 10.89,-8.05 z m 5.79,1.1 c 0.99,0.13 2.46,-0.7 4.04,-2.27 4.9,-4.92 14.23,-12.31 18.57,-15.7 -5.31,-5.6 -8.58,-9.39 -10.57,-12.06 -0.25,0.68 -0.51,1.41 -0.83,2.26 -3.03,8.31 -5.3,13.99 -8.89,17.08 -1.57,1.34 -2.95,6.11 -3.62,9.83 0.06,0.11 0.55,0.75 1.3,0.86 z m 30.24,-17.2 c 3.31,3.71 6.64,7.08 9.41,9.16 7.04,5.25 23.59,17.52 50.26,19.36 25.33,1.78 44.73,13.06 51.9,17.83 5.26,3.51 24.69,18.52 29.53,23.86 3.29,3.58 7.26,5.49 8.19,4.97 0.37,-0.19 1.08,-1.92 -0.2,-7.27 -3.81,-15.94 -20.33,-39.24 -35.78,-45.13 l -3.67,-1.43 3.22,-2.26 c 0.47,-0.33 11.58,-7.95 23.08,-4.48 6.18,1.88 12.94,7.15 18.38,11.41 2.68,2.09 5.86,4.58 7.23,5.12 0.99,-0.57 1.51,-1.18 1.73,-2.01 0.32,-1.26 0.2,-4.36 -4.29,-10.92 -6.44,-9.5 -11.6,-12.78 -13.07,-13.62 -7.62,-2.45 -14.49,-4.1 -19.08,-4.36 -4.82,-0.27 -10.21,-0.71 -15.75,-1.21 -0.21,0.04 -0.42,0.07 -0.64,0.13 -2.92,2.88 -13.32,12.7 -19.54,12.71 -2.34,0 -4.87,-0.36 -7.54,-0.75 -3.34,-0.5 -6.76,-1 -9.55,-0.68 -1.38,0.35 -2.29,0.5 -2.45,0.53 l -1,-4.05 c 0.82,-0.29 1.69,-0.48 2.58,-0.6 3.75,-1.01 11.26,-3.7 15.24,-9.71 -4.07,-0.46 -7.95,-0.93 -11.41,-1.36 -3.1,-0.38 -6.74,-1.49 -10.82,-2.87 -0.32,0.13 -0.64,0.21 -0.97,0.36 -12.69,6.17 -23.36,9.3 -34.08,4.49 -0.18,-0.06 -0.37,-0.16 -0.54,-0.24 -4.17,-1.98 -9.14,-5.27 -13.96,-8.48 -5.25,-3.47 -11.11,-7.36 -14.2,-8.2 -0.34,0.22 -0.59,0.57 -0.97,0.74 -3.1,1.33 -7.15,1.53 -10.75,1.69 -1.2,0.06 -2.62,0.14 -3.9,0.28 -0.43,0.04 -0.88,0.07 -1.23,0.14 1.93,2.69 6.48,7.85 10.96,12.59 1.21,1.45 2.43,2.88 3.68,4.26 z m 211.57,48.58 c 3.64,6.31 8.63,14.98 10.27,15.7 0.01,0.01 0.01,0.01 0.02,0.01 2.45,-0.01 4.04,-0.45 4.94,-1.44 1,-1.06 1.43,-2.94 1.25,-5.58 -0.02,-0.52 -0.03,-1.13 -0.05,-1.81 -0.29,-9.9 -1.03,-36.18 -49.93,-65.81 l -1.54,-0.94 0.69,-1.66 c 0.21,-0.49 5.13,-11.89 24.83,-5.4 15.32,5.09 24.89,16.33 30.04,22.37 1.08,1.28 1.99,2.33 2.7,3.07 3.85,3.83 5.17,4.28 5.57,4.24 0.01,-0.01 0.85,-0.68 1.01,-4.46 -0.01,-0.16 -1.54,-15.98 -18.76,-31.39 -18.67,-16.66 -26.82,-18.46 -32.99,-18.84 -6.62,-0.39 -15.13,2.41 -30.37,10.03 -14.91,7.5 -42.55,8.44 -47.13,4.4 l -1.35,-1.18 0.95,-1.52 c 1.61,-2.54 16,-24.87 27.14,-27.31 10.97,-2.43 32.4,-4.73 35.61,-4.74 2.26,-0.01 3.12,-0.52 3.2,-0.6 -0.01,0 0.09,-1.04 -2.43,-3.74 -6.11,-6.52 -27.79,-12.91 -46.46,-7.65 -15.7,4.4 -28.88,16.63 -35.74,25.68 1.7,0.72 3.32,1.34 4.72,1.74 0.6,0.17 2.22,0.28 3.73,0.33 0.97,-0.08 1.56,0.03 1.88,0.1 l -0.7,5.17 c -0.16,0.01 -0.53,0 -1,-0.01 -1.23,0.16 -4.61,0.96 -11.16,5.08 -22.09,13.83 -42.03,16.91 -59.25,9.19 -0.14,-0.06 -0.29,-0.12 -0.43,-0.18 -10.01,-4.63 -18.62,-7.3 -24.09,-8.65 0.55,1.64 0.85,3.48 0.85,5.47 -0.01,2.37 -0.49,4.91 -1.42,7.15 1.75,1.23 6.79,3.59 19.89,3.26 12.97,-0.33 25.88,4.27 36.25,7.97 1.19,0.42 2.34,0.83 3.47,1.22 1.23,0.43 2.37,0.81 3.51,1.19 1.86,0.6 3.64,1.14 5.22,1.5 0.98,0.22 1.91,0.42 2.77,0.53 2.41,0.29 5.05,0.62 7.76,0.93 2.31,0.28 4.73,0.56 7.17,0.83 0.74,0.09 1.39,0.17 2.12,0.24 5.45,0.61 11.09,1.2 16.61,1.72 3.23,0.3 6.37,0.55 9.43,0.79 2.3,0.17 4.59,0.34 6.71,0.46 2.38,0.12 5.32,0.61 8.59,1.35 3.62,0.83 7.65,1.94 11.92,3.33 18.66,6.07 41.37,16.8 48.94,24.99 4.98,5.43 10.32,14.68 15.04,22.87 z m 70.7,-342.24 c -0.45,84.53 0.62,169.08 -0.02,253.62 -0.34,47.05 -0.18,94.09 -0.27,141.14 l -372.21,-0.7 -372.19,0.7 c -0.09,-47.05 0.06,-94.09 -0.27,-141.14 -0.64,-84.54 0.43,-169.09 -0.04,-253.62 -0.34,-64.19 -4.73,-125.79 17.38,-186.73 52.09,-143.62 185.01,-252.88 354.04,-253.2 0.36,0 0.72,0.02 1.08,0.02 0.37,0 0.74,-0.02 1.11,-0.02 169.03,0.32 301.94,109.58 354.03,253.2 22.11,60.94 17.71,122.54 17.36,186.73" /><path
         id="path20"
         style="fill-opacity:1;fill-rule:nonzero;stroke:none"
         d="m 1755.35,2056.74 c -2.87,0 -5.16,2.08 -5.15,4.6 0,2.51 2.29,4.57 5.17,4.56 2.82,-0.01 5.13,-2.06 5.13,-4.58 -0.01,-2.52 -2.32,-4.59 -5.15,-4.58 z m 19.02,6.15 c -2.98,1.89 -4.57,4.08 -8.64,6.51 -7.76,4.65 -14.56,1.37 -19.16,-1.6 -4.57,-2.96 -8.35,-5.36 -8.35,-5.36 -2.73,-1.89 0.24,-1.9 0.24,-1.9 3.53,0.28 7.55,-0.55 7.55,-0.55 0,0 0.53,-10.81 11.33,-11.08 10.8,-0.29 12.7,9.95 12.7,9.95 1.34,0.8 8.65,-0.29 8.65,-0.29 0,0 -1.26,2.4 -4.32,4.32" /><path
         id="path22"
         style="fill-opacity:1;fill-rule:nonzero;stroke:none"
         d="m 4534.35,2247.68 h 99.67 v 36.7 h -75.84 z m 46.09,-22.12 -55.43,-76.3 -54.18,76.3 h -54.84 l 85.66,-116.79 v -116.8 h 46.72 v 116.8 l 85.65,116.79 z m -265.67,-109.01 91.41,109.01 h -52.48 l -77.87,-93.43 v 93.43 h -46.71 v -233.59 h 46.71 v 100.92 l 88.77,-100.92 h 60.74 z m -241.54,29.6 c -5.21,6.23 -5.21,13.74 0,22.59 5.18,8.79 17.12,13.23 35.8,13.23 18.69,0 33.23,-6.24 43.61,-18.7 l 31.14,31.16 c -10.37,10.37 -21.53,18.16 -33.46,23.35 -11.96,5.18 -28.77,7.78 -50.47,7.78 -18.68,0 -36.88,-6.26 -54.58,-18.77 -17.7,-12.51 -26.55,-29.09 -26.55,-49.75 0,-22.84 7.79,-38.93 23.36,-48.27 15.58,-9.34 32.7,-15.07 51.39,-17.15 20.77,-2.05 33.7,-7.52 38.85,-16.32 5.14,-8.85 5.14,-17.68 0,-26.48 -5.15,-8.84 -18.08,-13.25 -38.85,-13.25 -24.92,2.06 -42.56,9.34 -52.95,21.82 l -31.14,-31.16 c 10.37,-10.38 22.84,-18.68 37.37,-24.9 14.52,-6.25 32.64,-9.36 54.35,-9.36 22.84,0 42.84,6.74 60.03,20.23 17.19,13.52 25.77,29.6 25.77,48.31 0,23.86 -8.05,41.24 -24.14,52.15 -16.08,10.91 -33.99,17.39 -53.73,19.47 -18.68,3.11 -30.62,7.77 -35.8,14.02 m -151.05,-154.18 93.27,233.59 h -49.83 l -67.6,-171.14 -66.33,171.14 h -49.82 l 93.58,-233.59 z m -100.12,0.15 -93.27,233.44 h -46.73 l -93.45,-233.59 h 49.82 l 14.04,35.83 h 105.9 l 14,-35.83 z m -80.81,82.37 h -70.11 l 35.52,88.78 z m -334.92,-82.52 h 171.31 v 43.6 h -124.59 v 189.99 h -46.72 z m -140.68,154.18 c -5.2,6.23 -5.2,13.74 0,22.59 5.18,8.79 17.12,13.23 35.81,13.23 18.69,0 33.23,-6.24 43.6,-18.7 l 31.15,31.16 c -10.38,10.37 -21.55,18.16 -33.48,23.35 -11.94,5.18 -28.77,7.78 -50.46,7.78 -18.68,0 -36.88,-6.26 -54.58,-18.77 -17.69,-12.51 -26.56,-29.09 -26.56,-49.75 0,-22.84 7.8,-38.93 23.37,-48.27 15.57,-9.34 32.7,-15.07 51.38,-17.15 20.78,-2.05 33.71,-7.52 38.86,-16.32 5.15,-8.85 5.15,-17.68 0,-26.48 -5.15,-8.84 -18.08,-13.25 -38.86,-13.25 -24.91,2.06 -42.55,9.34 -52.95,21.82 l -31.15,-31.16 c 10.4,-10.38 22.86,-18.68 37.39,-24.9 14.54,-6.25 32.65,-9.36 54.35,-9.36 22.84,0 42.85,6.74 60.03,20.23 17.18,13.52 25.77,29.6 25.77,48.31 0,23.86 -8.04,41.24 -24.14,52.15 -16.09,10.91 -33.98,17.39 -53.72,19.47 -18.69,3.11 -30.63,7.77 -35.81,14.02 m -127.62,-154.18 h 46.55 v 233.75 h -46.55 z m -97.43,190 h 77.88 v 43.59 h -202.45 v -43.59 h 77.87 v -190 h 46.7 z m -86.86,-189.85 -93.29,233.44 h -46.71 l -93.45,-233.59 h 49.83 l 14.03,35.83 h 105.88 l 14.02,-35.83 z m -80.83,82.37 h -70.08 l 35.51,88.78 z m -164.6,-82.52 -58.25,101.84 c 28.67,9.25 42.98,30.73 42.98,64.47 0,44.85 -27.24,67.28 -81.75,67.28 h -101.85 v -233.59 h 46.71 v 96.56 h 42.68 l 55.91,-96.56 z m -86.76,140.16 h -65.4 v 49.67 h 65.9 c 18.46,-0.62 27.96,-8.62 28.49,-24 -0.53,-16.81 -10.18,-25.37 -28.99,-25.67 m -176.05,-16.97 c 10.49,6.94 16.09,20.8 16.82,41.57 -2.17,43.51 -22.94,66.41 -62.29,68.69 h -123.95 v -233.45 l 131.43,-0.16 c 44.96,2.6 68.46,25.91 70.55,69.92 -1.26,21.91 -12.1,39.73 -32.56,53.43 m -28.18,45.77 c -0.52,-19.1 -10.18,-28.8 -28.97,-29.11 h -65.4 v 47.17 h 65.86 c 18.49,-0.61 27.99,-6.64 28.51,-18.06 m 15.57,-98.73 c -0.52,-22.22 -11.73,-33.47 -33.64,-33.79 h -76.3 v 57.14 h 76.77 c 21.6,-0.62 32.65,-8.39 33.17,-23.35" /><path
         id="path24"
         style="fill-opacity:1;fill-rule:nonzero;stroke:none"
         d="m 2275.76,1632.25 h 2330.91 v 12.76 H 2275.76 v -12.76" /><path
         id="path26"
         style="fill-opacity:1;fill-rule:nonzero;stroke:none"
         d="m 2287.23,1418.41 v 93.67 h 25.15 c 11.7,-20.94 33.31,-59.01 37.66,-69.2 h 0.28 c -1.1,9.79 -1.1,26.1 -1.1,41.46 v 27.74 h 18.36 v -93.67 h -23.8 c -10.05,18.35 -33.98,61.86 -38.74,72.73 h -0.27 c 0.67,-8.15 0.95,-27.46 0.95,-44.18 v -28.55 h -18.49" /><path
         id="path28"
         style="fill-opacity:1;fill-rule:nonzero;stroke:none"
         d="m 2450.93,1456.61 c -6.66,19.85 -10.88,32.49 -13.18,40.92 h -0.14 c -2.31,-9.24 -6.93,-23.92 -12.23,-40.92 z m -29.91,-16.59 -7.21,-21.61 h -19.98 l 31.82,93.67 h 25.42 l 33.31,-93.67 h -21.35 l -7.74,21.61 h -34.27" /><path
         id="path30"
         style="fill-opacity:1;fill-rule:nonzero;stroke:none"
         d="m 2546.93,1448.45 c 0,-21.62 -7.07,-31.4 -27.6,-31.4 -3.4,0 -9.38,0.27 -12.65,1.22 v 16.04 c 1.64,-0.27 6.39,-0.54 9.25,-0.54 9.24,0 10.74,6.25 10.74,13.32 v 64.99 h 20.26 v -63.63" /><path
         id="path32"
         style="fill-opacity:1;fill-rule:nonzero;stroke:none"
         d="m 2582.01,1512.08 h 20.26 v -77.09 h 46.77 l -2.32,-16.58 h -64.71 v 93.67" /><path
         id="path34"
         style="fill-opacity:1;fill-rule:nonzero;stroke:none"
         d="m 2739.18,1458.79 h -44.86 v -23.8 h 49.48 l -2.45,-16.58 h -66.75 v 93.67 h 66.49 v -16.59 h -46.77 v -19.98 h 44.86 v -16.72" /><path
         id="path36"
         style="fill-opacity:1;fill-rule:nonzero;stroke:none"
         d="m 2792.08,1469.52 h 15.5 c 9.38,0 16.05,3.68 16.05,13.19 0,9.66 -7.07,13.33 -15.64,13.33 h -15.91 z m -20.26,42.56 h 38.75 c 19.99,0 33.45,-11.15 33.45,-28.96 0,-20.39 -15.36,-29.77 -33.86,-29.77 h -18.08 v -34.94 h -20.26 v 93.67" /><path
         id="path38"
         style="fill-opacity:1;fill-rule:nonzero;stroke:none"
         d="m 2896.77,1520.1 -17.8,18.76 h 17.94 l 9.11,-9.51 8.98,9.51 h 18.07 L 2915,1520.1 Z m -8.97,-74.23 c 2.18,-9.38 8.84,-13.6 19.71,-13.6 10.88,0 15.5,4.35 15.5,11.15 0,7.75 -4.48,11.02 -20.52,14.68 -25.56,5.98 -31.82,15.37 -31.82,28.01 0,16.31 12.24,27.33 34.4,27.33 24.88,0 34.81,-13.33 36.17,-27.06 h -20.41 c -1.08,5.85 -4.2,12.1 -16.3,12.1 -8.29,0 -13.2,-3.39 -13.2,-10.05 0,-6.53 3.95,-9.25 19.17,-12.65 27.2,-6.52 33.18,-16.59 33.18,-29.91 0,-17 -12.91,-28.82 -37.66,-28.82 -23.79,0 -36.44,11.69 -38.61,28.82 h 20.39" /><path
         id="path40"
         style="fill-opacity:1;fill-rule:nonzero;stroke:none"
         d="m 2992.37,1512.08 v -93.67 h -20.27 v 93.67 h 20.27" /><path
         id="path42"
         style="fill-opacity:1;fill-rule:nonzero;stroke:none"
         d="m 3092.84,1458.79 h -44.87 v -23.8 h 49.5 l -2.46,-16.58 h -66.75 v 93.67 h 66.48 v -16.59 h -46.77 v -19.98 h 44.87 v -16.72" /><path
         id="path44"
         style="fill-opacity:1;fill-rule:nonzero;stroke:none"
         d="m 3250.96,1453.62 c 0,15.9 0.28,33.85 0.69,44.45 h -0.69 c -4.34,-19.17 -13.73,-50.3 -22.7,-79.66 h -17.27 c -6.93,25.69 -16.58,61.18 -20.66,79.94 h -0.68 c 0.81,-11.01 1.22,-30.32 1.22,-46.37 v -33.57 h -18.48 v 93.67 h 30.17 c 7.35,-24.48 15.5,-55.2 18.36,-69.07 h 0.14 c 2.3,12.24 12.5,45.14 20.39,69.07 h 29.09 v -93.67 h -19.58 v 35.21" /><path
         id="path46"
         style="fill-opacity:1;fill-rule:nonzero;stroke:none"
         d="m 3326.71,1512.08 v -93.67 h -20.25 v 93.67 h 20.25" /><path
         id="path48"
         style="fill-opacity:1;fill-rule:nonzero;stroke:none"
         d="m 3427.18,1458.79 h -44.86 v -23.8 h 49.49 l -2.45,-16.58 h -66.75 v 93.67 h 66.48 v -16.59 h -46.77 v -19.98 h 44.86 v -16.72" /><path
         id="path50"
         style="fill-opacity:1;fill-rule:nonzero;stroke:none"
         d="m 3475.05,1445.87 c 2.17,-9.38 8.84,-13.6 19.71,-13.6 10.88,0 15.5,4.35 15.5,11.15 0,7.75 -4.48,11.02 -20.53,14.68 -25.56,5.98 -31.81,15.37 -31.81,28.01 0,16.31 12.24,27.33 34.4,27.33 24.87,0 34.8,-13.33 36.16,-27.06 h -20.39 c -1.09,5.85 -4.22,12.1 -16.32,12.1 -8.29,0 -13.18,-3.39 -13.18,-10.05 0,-6.53 3.93,-9.25 19.17,-12.65 27.19,-6.52 33.17,-16.59 33.17,-29.91 0,-17 -12.92,-28.82 -37.66,-28.82 -23.79,0 -36.44,11.69 -38.62,28.82 h 20.4" /><path
         id="path52"
         style="fill-opacity:1;fill-rule:nonzero;stroke:none"
         d="m 3579.07,1495.49 h -28.56 v 16.59 h 77.23 v -16.59 h -28.42 v -77.08 h -20.25 v 77.08" /><path
         id="path54"
         style="fill-opacity:1;fill-rule:nonzero;stroke:none"
         d="m 3667.17,1465.72 c 0,-18.35 8.03,-32.22 24.61,-32.22 18.09,0 24.47,15.09 24.47,31.81 0,17.81 -7.34,31.68 -24.74,31.68 -16.99,0 -24.34,-13.05 -24.34,-31.27 z m 70.02,-0.14 c 0,-26.1 -15.63,-48.53 -46.09,-48.53 -29.5,0 -44.86,21.34 -44.86,48.26 0,27.19 16.99,48.13 46.09,48.13 27.46,0 44.86,-19.17 44.86,-47.86" /><path
         id="path56"
         style="fill-opacity:1;fill-rule:nonzero;stroke:none"
         d="m 3835.09,1469.52 h 15.5 c 9.39,0 16.05,3.68 16.05,13.19 0,9.66 -7.07,13.33 -15.64,13.33 h -15.91 z m -20.25,42.56 h 38.74 c 19.99,0 33.45,-11.15 33.45,-28.96 0,-20.39 -15.36,-29.77 -33.85,-29.77 h -18.09 v -34.94 h -20.25 v 93.67" /><path
         id="path58"
         style="fill-opacity:1;fill-rule:nonzero;stroke:none"
         d="m 3935.71,1472.11 h 16.99 c 11.02,0 15.37,4.21 15.37,11.96 0,7.62 -5.04,11.97 -14.96,11.97 h -17.4 z m 0,-16.18 v -37.52 h -19.85 v 93.67 h 41.2 c 20.39,0 31.4,-11.15 31.4,-25.7 0,-12.51 -6.79,-19.3 -13.59,-22.16 4.62,-1.77 11.69,-6.52 11.69,-23.38 v -4.62 c 0,-6.26 0,-13.46 1.36,-17.81 h -19.31 c -1.63,4.07 -1.91,11.14 -1.91,21.07 v 1.36 c 0,10.2 -2.57,15.09 -17.66,15.09 h -13.33" /><path
         id="path60"
         style="fill-opacity:1;fill-rule:nonzero;stroke:none"
         d="m 4084.73,1458.79 h -44.86 v -23.8 h 49.49 l -2.45,-16.58 h -66.75 v 93.67 h 66.48 v -16.59 h -46.77 v -19.98 h 44.86 v -16.72" /><path
         id="path62"
         style="fill-opacity:1;fill-rule:nonzero;stroke:none"
         d="m 4185.89,1520.92 -17.81,18.76 h 17.95 l 9.11,-9.52 8.98,9.52 h 18.07 l -18.07,-18.76 z m -28.81,-87.7 51.52,62.27 h -49.22 v 16.59 h 72.2 v -16.32 l -49.63,-60.77 h 52.34 l -2.58,-16.58 h -74.63 v 14.81" /><path
         id="path64"
         style="fill-opacity:1;fill-rule:nonzero;stroke:none"
         d="m 4282.44,1512.08 v -93.67 h -20.26 v 93.67 h 20.26" /><path
         id="path66"
         style="fill-opacity:1;fill-rule:nonzero;stroke:none"
         d="m 4340.9,1418.41 -33.03,93.67 h 21.74 l 13.87,-43.23 c 4.36,-13.06 7.48,-24.2 9.66,-33.86 h 0.27 c 1.91,8.84 5.58,20.26 10.06,33.58 l 14.69,43.51 h 20.66 l -33.99,-93.67 h -23.93" /><path
         id="path68"
         style="fill-opacity:1;fill-rule:nonzero;stroke:none"
         d="m 4438.38,1465.72 c 0,-18.35 8.03,-32.22 24.61,-32.22 18.09,0 24.48,15.09 24.48,31.81 0,17.81 -7.35,31.68 -24.75,31.68 -16.99,0 -24.34,-13.05 -24.34,-31.27 z m 70.02,-0.14 c 0,-26.1 -15.63,-48.53 -46.09,-48.53 -29.5,0 -44.86,21.34 -44.86,48.26 0,27.19 16.99,48.13 46.09,48.13 27.46,0 44.86,-19.17 44.86,-47.86" /><path
         id="path70"
         style="fill-opacity:1;fill-rule:nonzero;stroke:none"
         d="m 4556.55,1495.49 h -28.56 v 16.59 h 77.23 v -16.59 h -28.42 v -77.08 h -20.25 v 77.08" /><path
         id="path72"
         style="fill-opacity:1;fill-rule:nonzero;stroke:none"
         d="m 3827.95,1873.26 -41.64,-49.96 v 49.96 h -24.97 v -124.9 h 24.97 v 53.96 l 47.47,-53.96 h 32.48 l -59.13,66.61 48.88,58.29 z m -620.62,14.82 h 47.64 v 17.55 h -36.24 z m -1.25,-14.82 -49.96,-124.9 h 26.63 l 7.53,19.16 h 56.59 l 7.51,-19.16 26.55,0.08 -49.88,124.82 z m -5.84,-80.77 18.99,47.46 18.49,-47.46 z m -219,80.77 h -54.46 v -124.9 h 24.97 v 51.63 h 29.57 c 29.1,0 43.64,12.43 43.64,37.31 0,23.97 -14.56,35.96 -43.72,35.96 m 20.99,-36.22 c -0.3,-9 -5.45,-13.57 -15.5,-13.74 h -34.98 v 26.56 h 35.23 c 9.89,-0.32 14.95,-4.6 15.25,-12.82 m -214.9,-26.22 c 0,17.75 -5.97,32.6 -17.9,44.54 -11.93,11.93 -26.8,17.9 -44.55,17.9 -17.77,0 -32.63,-5.97 -44.55,-17.9 -11.95,-11.94 -17.9,-26.79 -17.9,-44.54 0,-17.72 5.95,-32.55 17.9,-44.53 11.92,-11.96 26.78,-17.93 44.55,-17.93 17.75,0 32.62,5.96 44.55,17.89 11.93,11.94 17.9,26.79 17.9,44.57 m -24.97,0 c 0,-11.11 -3.48,-20.41 -10.41,-27.91 -6.95,-7.49 -15.94,-11.25 -26.99,-11.25 -11.17,0 -20.2,3.76 -27.14,11.25 -6.96,7.5 -10.41,16.8 -10.41,27.91 0,11.09 3.45,20.39 10.41,27.89 6.94,7.48 15.93,11.25 26.96,11.25 11.18,0 20.22,-3.77 27.17,-11.25 6.93,-7.5 10.41,-16.8 10.41,-27.89 m -437.89,62.44 c -9.98,0 -19.75,-3.35 -29.19,-10.05 -9.45,-6.66 -14.2,-15.54 -14.2,-26.6 0,-12.2 4.15,-20.81 12.48,-25.79 8.33,-5.01 17.49,-8.06 27.5,-9.16 11.1,-1.13 18.04,-4.03 20.76,-8.76 2.77,-4.73 2.77,-9.45 0,-14.16 -2.72,-4.72 -9.66,-7.08 -20.76,-7.08 -13.34,1.12 -22.77,5.01 -28.33,11.67 l -16.65,-16.65 c 5.57,-5.56 12.22,-9.99 19.98,-13.33 7.77,-3.34 17.46,-4.99 29.08,-4.99 12.19,0 22.88,3.61 32.09,10.83 9.19,7.21 13.79,15.82 13.79,25.81 0,12.77 -4.3,22.07 -12.92,27.88 -8.59,5.83 -18.18,9.31 -28.73,10.42 -9.99,1.67 -16.38,4.17 -19.16,7.49 -2.75,3.33 -2.75,7.34 0,12.08 2.78,4.72 9.17,7.09 19.16,7.09 10,0 17.77,-3.36 23.32,-10.01 l 16.66,16.66 c -5.56,5.56 -11.5,9.71 -17.9,12.49 -6.4,2.77 -15.4,4.16 -26.98,4.16 m 100.88,0 -49.97,-124.9 h 26.66 l 7.49,19.16 h 56.62 l 7.5,-19.16 26.57,0.08 -49.9,124.82 z m -5.82,-80.77 18.97,47.46 18.5,-47.46 z m 107.64,80.77 h -8.3 v -124.9 h 24.97 v 72.44 l 37.47,-41.64 37.48,41.64 0.09,-72.44 h 24.97 v 124.9 h -8.32 l -54.22,-61.63 z m 299.01,-89.93 -16.65,-16.65 c 5.54,-5.56 12.22,-9.99 19.98,-13.33 7.77,-3.34 17.47,-4.99 29.06,-4.99 12.23,0 22.91,3.61 32.13,10.83 9.17,7.21 13.77,15.82 13.77,25.81 0,12.77 -4.32,22.07 -12.9,27.88 -8.63,5.83 -18.2,9.31 -28.74,10.42 -9.99,1.67 -16.39,4.17 -19.15,7.49 -2.79,3.33 -2.79,7.34 0,12.08 2.76,4.72 9.16,7.09 19.15,7.09 9.99,0 17.76,-3.36 23.32,-10.01 l 16.65,16.66 c -5.55,5.56 -11.53,9.71 -17.91,12.49 -6.37,2.77 -15.37,4.16 -26.98,4.16 -9.99,0 -19.71,-3.35 -29.18,-10.05 -9.48,-6.66 -14.19,-15.54 -14.19,-26.6 0,-12.2 4.16,-20.81 12.48,-25.79 8.33,-5.01 17.49,-8.06 27.49,-9.16 11.08,-1.13 18.01,-4.03 20.74,-8.76 2.77,-4.73 2.77,-9.45 0,-14.16 -2.73,-4.72 -9.66,-7.08 -20.74,-7.08 -13.33,1.12 -22.78,5.01 -28.33,11.67 m 271.64,89.93 h -54.46 v -124.9 h 24.97 v 51.63 h 22.83 l 29.89,-51.63 h 28.65 l -31.15,54.45 c 15.32,4.94 22.99,16.44 22.99,34.49 0,23.97 -14.57,35.96 -43.72,35.96 m -29.49,-23.4 h 35.23 c 9.88,-0.32 14.96,-4.6 15.24,-12.82 -0.28,-9 -5.45,-13.57 -15.47,-13.74 h -35 z m 250.23,23.4 h -26.63 l 50.06,-124.9 h 24.97 l 49.88,124.9 h -26.64 l -36.15,-91.52 z m 127.33,0 h -8.31 v -124.9 h 24.98 v 77.44 l 77.44,-77.44 h 9.16 v 124.9 h -24.99 v -78.28 z m 151.15,0 h -29.32 l 45.82,-62.44 v -62.46 h 24.98 v 62.46 l 45.78,62.44 h -28.64 L 3626,1832.47 Z m 338.76,0 h -54.46 v -124.9 h 24.98 v 51.63 h 22.82 l 29.9,-51.63 h 28.64 l -31.14,54.45 c 15.31,4.94 22.98,16.44 22.98,34.49 0,23.97 -14.57,35.96 -43.72,35.96 m -29.48,-23.4 h 35.24 c 9.85,-0.32 14.95,-4.6 15.21,-12.82 -0.26,-9 -5.43,-13.57 -15.48,-13.74 h -34.97 z m 137.74,23.4 -49.96,-124.9 h 26.63 l 7.51,19.16 h 56.63 l 7.47,-19.16 26.57,0.08 -49.86,124.82 z m -5.85,-80.77 19,47.46 18.49,-47.46 z m 101.45,-20.83 h -8.26 v -23.3 h 16.84 c 9.86,0 17.86,3.04 23.96,9.15 6.12,6.11 9.17,14.12 9.17,24.07 l 0.08,91.68 h -25.06 v -83.36 c 0,-11.66 -5.57,-17.72 -16.73,-18.24" /><path
         id="path74"
         style="fill-opacity:1;fill-rule:nonzero;stroke:none"
         d="m 1706.33,1395.18 1.1,-5.02 -0.01,5 c 157.26,0.29 294.38,98.39 349.34,249.9 18.84,51.94 18.12,104.11 17.36,159.35 -0.12,8.5 -0.24,17.05 -0.29,25.65 v 0 c -0.22,40 -0.09,80.01 0.03,120.01 0.13,43.79 0.28,89.08 -0.07,133.6 -0.22,31.38 -0.22,62.75 -0.23,94.13 l -0.03,42.04 -367.19,-0.69 -367.21,0.69 -0.03,-42.04 c -0.01,-31.38 -0.01,-62.75 -0.24,-94.13 -0.34,-44.65 -0.19,-90.07 -0.06,-134 0.12,-39.87 0.25,-79.75 0.03,-119.61 -0.05,-8.58 -0.16,-17.11 -0.28,-25.6 -0.77,-55.26 -1.5,-107.45 17.34,-159.4 54.96,-151.51 192.09,-249.61 349.36,-249.9 l 1.08,-4.98 z m 1.11,-10.02 -1.11,0.02 -1.1,-0.02 c -161.52,0.3 -302.33,100.98 -358.73,256.49 -19.47,53.67 -18.73,106.75 -17.95,162.95 0.12,8.46 0.23,16.96 0.28,25.51 0.22,39.84 0.09,79.69 -0.03,119.53 -0.13,43.95 -0.28,89.4 0.06,134.11 0.23,31.35 0.23,62.7 0.24,94.05 l 0.04,52.06 377.2,-0.71 377.18,0.71 0.04,-52.06 c 0.01,-31.35 0.01,-62.7 0.23,-94.06 0.35,-44.57 0.2,-89.88 0.07,-133.7 -0.12,-39.97 -0.25,-79.95 -0.03,-119.93 v 0 c 0.05,-8.56 0.17,-17.09 0.29,-25.57 0.77,-56.17 1.51,-109.24 -17.96,-162.89 -56.4,-155.51 -197.21,-256.19 -358.72,-256.49" /></g></g></svg>
