<svg id="svg2" xmlns="http://www.w3.org/2000/svg" viewBox="0 0 362.47 106.25"><g id="g10"><g id="g12"><path id="path18" d="M77.9,79c-1.2-.22-4.62-.6-7.14,1.47a29.42,29.42,0,0,0-4.05,4.15,17.12,17.12,0,0,1-1.6,1.74c-1.22,1.06-2.48,2.15-6.43,2.44-3.08.22-5.86-1.42-8.5-5-3-4.08-5.66-4.55-7.87-4.47a10.89,10.89,0,0,0-4.22.83,10.1,10.1,0,0,0-3.72,3c-2.89,3.5-5,5.58-9.82,5-3.9-.48-5.28-2.42-6.51-4.14a14.69,14.69,0,0,0-1-1.34c-.3-.32-.59-.68-.9-1.06-1.42-1.71-3.18-3.84-5.8-4a20.17,20.17,0,0,0-6,.78,44.63,44.63,0,0,1-1.84-4.33l-.06-.17c1.13-.85,4-2.84,6.32-3a7.63,7.63,0,0,1,6.54,2.53c.52.53,1.07,1.16,1.65,1.82,2.13,2.46,4.55,5.23,7.72,5.31l.74,0h.79a10.62,10.62,0,0,0,3.22-.45l.34-.13.35-.14a10.65,10.65,0,0,0,3.46-2.72l.34-.36s0,0,0,0,.2-.23.31-.34a18.14,18.14,0,0,1,2.05-2.06c.14-.12.29-.23.45-.35l.5-.35.11-.07c.12-.08.24-.14.37-.21l.11-.06.28-.15.07,0a6,6,0,0,1,.95-.36,8.22,8.22,0,0,1,1.74-.29l.45,0a11.13,11.13,0,0,1,3.79.66l.09,0,.46.19.16.09.21.11h0a3.47,3.47,0,0,1,.33.18l0,0,.15.1c.18.12.36.24.53.37l.45.37a21,21,0,0,1,2.07,2.14l0,0,.25.29.1.12.39.43a14,14,0,0,0,3,2.54l.33.18.32.18a9.33,9.33,0,0,0,3,1l.39,0,.39,0a10.52,10.52,0,0,0,1.83-.1,7.86,7.86,0,0,0,4.75-2l1-1.09c3-3.28,5.12-5.66,9.59-5.65a17.11,17.11,0,0,1,4.82,1.41,36.79,36.79,0,0,1-2,4.94Zm-69.46-26a15.49,15.49,0,0,0,.79-1.76,5.65,5.65,0,0,1,.25-.55l.08-.14a3.13,3.13,0,0,1,.22-.36.61.61,0,0,1,.07-.1,3.65,3.65,0,0,1,.29-.37.46.46,0,0,1,.07-.07l.23-.24.11-.1.17-.14L11,49l0,0a2.93,2.93,0,0,0,1,.41,6.83,6.83,0,0,1,1.68.71,3.9,3.9,0,0,1,1.09,1.47,2.3,2.3,0,0,0,.65.91.86.86,0,0,0-.13.14,0,0,0,0,0,0,0l-.12.13-.08.08L15,53l-.1.11,0,0-.08.1,0,0s0,.05-.06.08l0,0-.06.07a1.44,1.44,0,0,0-.1.8c-.18.79-1.78,1.47-2.65,1.84l-.53.24c-1.13.56-1.54.58-1.7.51s-.05,0-.06-.11a5.9,5.9,0,0,1,.91-2.9,18.88,18.88,0,0,0,1.5-2.52L11.41,51a25.35,25.35,0,0,0-1.52,2.53,6.3,6.3,0,0,1-.84,1,2.1,2.1,0,0,1-1.12.24,3.28,3.28,0,0,1,.51-1.72Zm-.39-13.5A9.64,9.64,0,0,1,12.66,34h0s.93.57,1.35.93a5.87,5.87,0,0,1,1.63,2.53,1.31,1.31,0,0,0,.08.21,12.27,12.27,0,0,0-1.88,1.95,3.27,3.27,0,0,1-2.1,1.55c-1,.23-2.31.22-2.75-.2,0-.14.19-.49.55-1L9.64,40l2.64-2.8-.4-.4a26.48,26.48,0,0,0-2.71,2.82,1.12,1.12,0,0,1-.45.07c-.55,0-.68-.08-.68-.08Zm5.21-6.11c1.06-1.42,7.08-1.76,9.17-1.88.54,0,1-.05,1.18-.08l.13,0c1.59-.18,3.56-.42,4.36,1.06a47.86,47.86,0,0,0,4.44,6.36,7.67,7.67,0,0,0-2.66,4.19,11.49,11.49,0,0,1-3.54-.39l-1.25-5.55a.62.62,0,0,0,.06-.31c0-.33-.33-.64-.92-1-.93-.5-3.55.38-5.94,1.25-.34.12-.69.25-.76.26l-.32.09a1.63,1.63,0,0,1-.82.11h-.05s-.09,0-.13-.22a2.25,2.25,0,0,0-.09-.35.69.69,0,0,1-.05-.13c0-.07-.07-.15-.1-.23s-.05-.1-.08-.16a2,2,0,0,0-.11-.2,6.58,6.58,0,0,0-.38-.63l-.07-.09-.25-.33-.09-.1-.23-.27-.09-.09a3.69,3.69,0,0,0-.28-.28l-.27-.21-.1-.07-.21-.15L13.7,34l-.2-.13-.35-.23a.82.82,0,0,1,.11-.17ZM29.94,50.62c-.51-.2-1-.41-1.41-.61-.59-.28-1.45-.81-2.36-1.36-2-1.23-3.38-2-4-2a2.69,2.69,0,0,0-1.6.65c-.17.13-.37.27-.62.43-1.06.67-2.75,3.31-3.13,4-.19.34-.34.44-.55.43a2.06,2.06,0,0,1-.5-.13c-.12,0-.32-.43-.47-.72A4.07,4.07,0,0,0,14,49.66a4.47,4.47,0,0,0-.61-.33,10.75,10.75,0,0,0-1.21-.45l-.38-.13a1.67,1.67,0,0,1-.34-.14,1.46,1.46,0,0,1,.43-.42,7.56,7.56,0,0,1,1.29-.72A45.64,45.64,0,0,0,18,43.78c1.15-.94,2.45-2,2.68-2.1h0c.46-.16,2.34-.22,2.92.37a6.19,6.19,0,0,0,2.23,1.1,11.82,11.82,0,0,0,3.89.52c0,.17-.07.34-.1.51s-.09.55-.12.85a17.46,17.46,0,0,0,.42,5.59Zm25,27.64c0-.12.06-.24.1-.37s.07-.23.09-.36a12.72,12.72,0,0,0,.32-2.83v-.14c0-.12,0-.25,0-.37s0-.25,0-.37a13.15,13.15,0,0,0-1.57-5.47L53.65,68c-.07-.1-.13-.21-.2-.32a13.07,13.07,0,0,0-1-1.45l-.12-.14c-.27-.3-.54-.61-.83-.89L51.21,65l-.28-.25-.28-.25a13.5,13.5,0,0,0-5.72-2.83l-.37-.08-.36-.07a13.92,13.92,0,0,0-2.33-.21c-.3,0-.59,0-.89,0l-.37,0-.37,0a13.76,13.76,0,0,0-5.73,2l-.3.21-.31.21A13.15,13.15,0,0,0,31.52,66l-.24.29c-.08.1-.16.19-.23.29a13.2,13.2,0,0,0-2.73,6.7c0,.12,0,.25,0,.37s0,.25,0,.37,0,.43,0,.64a12.33,12.33,0,0,0,.13,1.72l.06.37c0,.13,0,.25.05.37a13.78,13.78,0,0,0,.74,2.5A10.34,10.34,0,0,1,26,80a16,16,0,0,1-.9-5.36,16.42,16.42,0,0,1,8.63-14.37c.37-.2.75-.39,1.13-.56a17,17,0,0,1,14.17.1q.55.27,1.11.57a17.26,17.26,0,0,1,3.56,2.67,16.2,16.2,0,0,1,3.63,17.83,8.78,8.78,0,0,1-3-.91,12.1,12.1,0,0,0,.6-1.72Zm-.24-3.7s0,.09,0,.14a12.27,12.27,0,0,1-.32,2.72l-3.87-.55-.17-.2-.25-.29c-.55-.62-1.09-1.23-1.67-1.78ZM45.4,71l5.29-5.48.27.25a12.66,12.66,0,0,1,1.89,2.39l-6.48,4.74a3.65,3.65,0,0,0-1-1.9ZM41,62.07c.28,0,.56,0,.85,0a13.82,13.82,0,0,1,2.24.21l-.83,7.5a4.85,4.85,0,0,0-1.38-.21,3.89,3.89,0,0,0-.49,0Zm-1.65,9,.31-.21a1.74,1.74,0,0,1,.33-.18.33.33,0,0,1,.1-.06,3.86,3.86,0,0,1,.6-.21l.37-.09.37,0a2.26,2.26,0,0,1,.45,0,4.31,4.31,0,0,1,1.3.2,3.68,3.68,0,0,1,.35.15,3.88,3.88,0,0,1,.36.15,2.19,2.19,0,0,1,.41.26,2,2,0,0,1,.28.19l0,0a3,3,0,0,1,.93,1.43l-.24-.1,0,0-.55-.18a11.23,11.23,0,0,0-3.8-.47l-.43,0-.43.05a7.11,7.11,0,0,0-1.06.22,4.8,4.8,0,0,0-.7.24,3.23,3.23,0,0,1,1.07-1.37Zm-3.91,3.23a25.29,25.29,0,0,0-1.94,2l0,0-4.37,0A12.1,12.1,0,0,1,29,74.65c0-.2,0-.4,0-.6ZM32,66.51a13,13,0,0,1,2.3-2.08l4.58,6.07a4,4,0,0,0-1.26,1.59ZM33.38,39a7.59,7.59,0,0,1,2.31-.95L36,38c.13,0,.41-.12.8-.22,3.12-.81,6-1.52,6.54-2.66a4.35,4.35,0,0,0,2.22,1.07,6.72,6.72,0,0,0,4.82-.26c.23-.1.65-.29.9-.42,1.81-1,2.62-3.79,2.65-3.91h0l-.53-.08s-.71,2.66-2.39,3.57a6.44,6.44,0,0,1-5.29.58,4,4,0,0,1-2.1-1c-.08-.08-.16-.14-.24-.21-.24-.29-1-.77-3.29-.11a4,4,0,0,1-3.74-.76,1.53,1.53,0,0,1-.29-.32c.11-.28.54-.39.92-.44,2.43-.27,3.5-.54,3.62-.55a1.25,1.25,0,0,1,.88.28,3.46,3.46,0,0,1,0-1.4c-.21.56-1.13.84-1.13.84l-2.88.37c-1.14.14-1.61-.11-1.81-.41a2.3,2.3,0,0,1,.7-2.33l.21-.18-.17-.21c-.11-.14-.38-.61-.25-.92s.57-.4.93-.44l1.84-.21A19,19,0,0,0,43.25,27a6.92,6.92,0,0,0,.9-.72,7.74,7.74,0,0,1,2.51-1.68l.25-.15A10.77,10.77,0,0,1,49,24l.18,0h.09a3.6,3.6,0,0,0,.81.11h.55l.14,0,.08,0a.59.59,0,0,1,.2.06l.06.05a.33.33,0,0,1,.11.14,1.42,1.42,0,0,1,.13.3,1.46,1.46,0,0,1,.05.38.45.45,0,0,1,0,.11.85.85,0,0,1-.24.59l-.1.07h0l0,.12,0,.14.08.29.24,0,.1,0,.3-.06.07,0c.25-.06.56-.14.93-.26h0l.61-.21h0c.24-.09.5-.19.77-.31a3.49,3.49,0,0,0,.34-.15l.18-.07,0,0c1.57-.7,3.39-.46,5.42.68h0a14.91,14.91,0,0,0-1.78.06l-.32,0-.7.05a4.44,4.44,0,0,0-2.2.86l-.47.29a4.64,4.64,0,0,1-2.38.18l-.08.45A4.8,4.8,0,0,0,55,27.58l.48-.3a4.07,4.07,0,0,1,2-.8l.71,0a19.08,19.08,0,0,1,2-.09q.41,0,.75.06l.33.07-.23.1-.41.19a15.52,15.52,0,0,0-2.22,1.39A4.4,4.4,0,0,1,57,29c-.22.05-.5.09-.9.14a5.14,5.14,0,0,1-2.31-.35,1.21,1.21,0,0,0-1.17,0l.24.39a.78.78,0,0,1,.74,0,5.49,5.49,0,0,0,2.56.4h0c0,1,0,7.56-3.16,11.3-3.83,4.45-4.35,7.68-4.43,8.57a4.93,4.93,0,0,1-.12.68c-.27,1.25-.76,3.58.56,8.9a17.62,17.62,0,0,0-15.18.39,39.64,39.64,0,0,1-3.1-7.89c-.06-.21-.11-.43-.16-.65a17.47,17.47,0,0,1-.5-5.75c0-.31.08-.59.13-.87s.07-.38.11-.56h0c.05,0,.07-.07.05,0l.15-.6a7,7,0,0,1,2.42-3.7,5,5,0,0,1,.47-.33ZM47.23,19.84l0,.06a2.62,2.62,0,0,0,.54,1.34,4.28,4.28,0,0,1,.84,1.67c.1.27.18.47.23.62a11.06,11.06,0,0,0-2.07.43,6.85,6.85,0,0,1-.2-2.24A5.29,5.29,0,0,0,46,19a3.14,3.14,0,0,1,1.19.88Zm.63-.12a.67.67,0,0,1,.44.25c.54.54,1.56,1.34,2,1.71-.58.62-.94,1-1.16,1.32,0-.07-.05-.15-.09-.25a4.51,4.51,0,0,0-1-1.86,2.4,2.4,0,0,1-.39-1.08.2.2,0,0,1,.14-.09Zm3.3,1.88a7.82,7.82,0,0,1,1-1,10,10,0,0,1,5.49-2.12,12.1,12.1,0,0,0,5.67-1.94,32.1,32.1,0,0,0,3.23-2.61c.36-.39.79-.6.89-.54s.12.21,0,.79c-.41,1.74-2.22,4.29-3.91,4.93l-.4.16.35.24A3.23,3.23,0,0,0,66,20a7.06,7.06,0,0,0,2-1.24,5.85,5.85,0,0,1,.79-.56.34.34,0,0,1,.19.22c0,.13,0,.47-.47,1.19a4.61,4.61,0,0,1-1.42,1.49,8.9,8.9,0,0,1-2.09.47c-.53,0-1.11.08-1.72.14l-.07,0c-.32-.31-1.45-1.39-2.13-1.39a5,5,0,0,0-.83.09,4.78,4.78,0,0,1-1,.07L59,20.4l-.11.44a1,1,0,0,0,.28.07A3,3,0,0,1,60.8,22l-1.25.15a6.3,6.3,0,0,0-1.18.31l-.11,0c-1.38-.67-2.55-1-3.72-.49l-.06,0a14.21,14.21,0,0,0-1.52.93,8.49,8.49,0,0,1-1.56.89.87.87,0,0,0-.1-.08,3.48,3.48,0,0,0-1.18-.18l-.42,0-.14,0a18.08,18.08,0,0,1,1.2-1.38Zm23.12-5.31a8.81,8.81,0,0,1,1.12-1.71h0a.7.7,0,0,1,.54.15.8.8,0,0,1,.14.61,1.41,1.41,0,0,1,0,.2c0,1.08-.11,3.95-5.45,7.19l-.17.1.08.18c0,.06.56,1.3,2.71.59a7.4,7.4,0,0,0,3.28-2.44l.29-.34c.43-.41.57-.46.61-.46s.1.08.11.49a5.75,5.75,0,0,1-2,3.43c-2,1.82-2.93,2-3.6,2.06a7.36,7.36,0,0,1-3.32-1.1c-1.63-.82-4.65-.92-5.15-.48l-.14.13.1.16c.17.28,1.75,2.72,3,3a34.42,34.42,0,0,0,3.89.52c.25,0,.35.05.35.06s0,.12-.26.41c-.67.71-3,1.41-5.08.84a8,8,0,0,1-3.9-2.81,3.65,3.65,0,0,1,.51-.19,3,3,0,0,1,.41,0,.6.6,0,0,0,.21,0l-.08-.56h-.11a3.39,3.39,0,0,1-1.22-.55c-2.41-1.52-4.59-1.85-6.47-1l0,0a14.81,14.81,0,0,1-2.63,1,1.89,1.89,0,0,0,.09-.6,2.08,2.08,0,0,0-.15-.78A3.64,3.64,0,0,1,54,23.93a11.22,11.22,0,0,0,4-.87l.38-.13.38-.13c.21-.07.4-.13.57-.17l.31-.06.84-.1.79-.09.23,0,1.81-.19,1-.09.74,0a4.75,4.75,0,0,0,.94-.15c.39-.09.83-.21,1.3-.36,2-.66,4.52-1.83,5.34-2.73a15.26,15.26,0,0,0,1.65-2.5ZM82,53.68c0-9.23.07-18.47,0-27.71,0-5.14,0-10.28,0-15.42l-40.66.08L.64,10.55c0,5.14,0,10.28,0,15.42-.07,9.24.05,18.48,0,27.71,0,7-.52,13.75,1.9,20.4,5.69,15.69,20.21,27.63,38.68,27.67h.24c18.46,0,33-12,38.68-27.67C82.52,67.43,82,60.7,82,53.68"/><path id="path20" d="M46.66,28.92a.54.54,0,0,1-.56-.5.56.56,0,1,1,.56.5Zm2.08-.67c-.33-.21-.5-.45-.94-.71a1.88,1.88,0,0,0-2.1.17l-.91.59c-.3.2,0,.21,0,.21a3,3,0,0,1,.82.06,1.26,1.26,0,0,0,1.24,1.21,1.36,1.36,0,0,0,1.39-1.09,3.1,3.1,0,0,1,.94,0,1.44,1.44,0,0,0-.47-.47"/><path id="path22" d="M350.28,8.06h10.89v-4h-8.29Zm5,2.42-6.05,8.33-5.92-8.33h-6l9.36,12.76V36h5.11V23.24l9.36-12.76Zm-29,11.91,10-11.91h-5.73L322,20.68V10.48h-5.1V36H322V25l9.7,11h6.64ZM299.9,19.15a2,2,0,0,1,0-2.47c.56-1,1.87-1.44,3.91-1.44a5.85,5.85,0,0,1,4.76,2l3.41-3.4a11.78,11.78,0,0,0-3.66-2.55,14.19,14.19,0,0,0-5.51-.85,10.21,10.21,0,0,0-6,2,6.35,6.35,0,0,0-2.9,5.43q0,3.75,2.55,5.28a13.86,13.86,0,0,0,5.62,1.87c2.27.22,3.68.82,4.24,1.78a2.71,2.71,0,0,1,0,2.9c-.56,1-2,1.44-4.24,1.44-2.72-.22-4.65-1-5.79-2.38l-3.4,3.4A12.79,12.79,0,0,0,297,35a15,15,0,0,0,5.94,1,10.34,10.34,0,0,0,6.56-2.21,6.56,6.56,0,0,0,2.82-5.28q0-3.92-2.64-5.7a12.75,12.75,0,0,0-5.87-2.13c-2-.34-3.35-.85-3.91-1.53M283.39,36l10.19-25.52h-5.44l-7.39,18.69-7.24-18.69h-5.44L278.29,36Zm-10.93,0-10.19-25.5h-5.11L247,36h5.44l1.54-3.92H265.5L267,36Zm-8.83-9H256l3.88-9.7ZM227,36h18.71V31.23H232.14V10.48H227ZM211.67,19.15a2,2,0,0,1,0-2.47c.56-1,1.87-1.44,3.91-1.44a5.85,5.85,0,0,1,4.76,2l3.41-3.4a11.78,11.78,0,0,0-3.66-2.55,14.25,14.25,0,0,0-5.52-.85,10.2,10.2,0,0,0-6,2,6.35,6.35,0,0,0-2.9,5.43q0,3.75,2.55,5.28a13.81,13.81,0,0,0,5.62,1.87c2.27.22,3.68.82,4.24,1.78a2.67,2.67,0,0,1,0,2.9c-.56,1-2,1.44-4.24,1.44-2.72-.22-4.65-1-5.79-2.38l-3.4,3.4A12.79,12.79,0,0,0,208.77,35a15,15,0,0,0,5.94,1,10.34,10.34,0,0,0,6.56-2.21,6.56,6.56,0,0,0,2.82-5.28q0-3.92-2.64-5.7a12.71,12.71,0,0,0-5.87-2.13c-2-.34-3.35-.85-3.91-1.53M197.72,36h5.09V10.46h-5.09ZM187.08,15.24h8.51V10.48H173.47v4.76H182V36h5.1ZM177.59,36,167.4,10.48h-5.11L152.08,36h5.45l1.53-3.92h11.57L172.16,36Zm-8.83-9H161.1l3.88-9.7Zm-18,9-6.37-11.13q4.69-1.52,4.7-7,0-7.35-8.93-7.35H129.05V36h5.1V25.45h4.66L144.92,36ZM141.3,20.68h-7.15V15.26h7.2c2,.07,3.06.94,3.11,2.62-.05,1.84-1.11,2.77-3.16,2.8m-19.24,1.86q1.72-1.14,1.84-4.54-.36-7.14-6.8-7.51H103.55V36h14.36q7.36-.42,7.71-7.63a7.3,7.3,0,0,0-3.56-5.84m-3.08-5a2.88,2.88,0,0,1-3.16,3.18h-7.15V15.56h7.2c2,.07,3.06.73,3.11,2m1.71,10.78Q120.6,32,117,32h-8.34V25.77h8.39q3.54.11,3.63,2.55"/><path id="path24" d="M103.52,75.3H358.18V73.9H103.52v1.4"/><path id="path26" d="M104.77,98.66V88.43h2.75c1.28,2.28,3.64,6.44,4.11,7.56h0c-.12-1.07-.12-2.85-.12-4.53v-3h2V98.66H111c-1.1-2-3.71-6.76-4.23-8h0c.07.89.1,3,.1,4.83v3.12h-2"/><path id="path28" d="M122.66,94.49c-.73-2.17-1.19-3.55-1.44-4.47h0c-.25,1-.76,2.61-1.34,4.47Zm-3.27,1.81-.79,2.36h-2.18l3.47-10.23h2.78l3.64,10.23H124l-.85-2.36h-3.74"/><path id="path30" d="M133.14,95.38c0,2.36-.77,3.43-3,3.43a6.33,6.33,0,0,1-1.38-.13V96.92a9,9,0,0,0,1,.06c1,0,1.17-.68,1.17-1.45v-7.1h2.21v6.95"/><path id="path32" d="M137,88.43h2.21v8.42h5.11l-.25,1.81H137V88.43"/><path id="path34" d="M154.15,94.25h-4.9v2.6h5.4l-.26,1.81h-7.3V88.43h7.27v1.81h-5.11v2.18h4.9v1.83"/><path id="path36" d="M159.93,93.08h1.69c1,0,1.75-.41,1.75-1.44s-.77-1.46-1.7-1.46h-1.74Zm-2.22-4.65H162c2.18,0,3.65,1.21,3.65,3.16,0,2.23-1.68,3.25-3.7,3.25h-2v3.82h-2.22V88.43"/><path id="path38" d="M171.37,87.55l-2-2h2l1,1,1-1h2l-2,2Zm-1,8.11a1.9,1.9,0,0,0,2.15,1.49c1.19,0,1.69-.48,1.69-1.22s-.49-1.21-2.24-1.61c-2.79-.65-3.48-1.68-3.48-3.06,0-1.78,1.34-3,3.76-3,2.72,0,3.81,1.45,3.95,3H174c-.11-.64-.45-1.32-1.78-1.32-.9,0-1.44.37-1.44,1.1s.43,1,2.1,1.38c3,.71,3.62,1.81,3.62,3.27,0,1.86-1.41,3.15-4.11,3.15s-4-1.28-4.22-3.15h2.23"/><path id="path40" d="M181.81,88.43V98.66H179.6V88.43h2.21"/><path id="path42" d="M192.79,94.25h-4.91v2.6h5.41L193,98.66h-7.29V88.43H193v1.81h-5.11v2.18h4.91v1.83"/><path id="path44" d="M210.06,94.81c0-1.73,0-3.69.08-4.85h-.08c-.47,2.09-1.5,5.49-2.48,8.7h-1.89c-.75-2.81-1.81-6.68-2.25-8.73h-.08c.09,1.2.14,3.31.14,5.06v3.67h-2V88.43h3.29c.81,2.67,1.7,6,2,7.54h0c.25-1.33,1.36-4.93,2.22-7.54h3.18V98.66h-2.14V94.81"/><path id="path46" d="M218.34,88.43V98.66h-2.21V88.43h2.21"/><path id="path48" d="M229.31,94.25h-4.9v2.6h5.41l-.27,1.81h-7.29V88.43h7.26v1.81h-5.11v2.18h4.9v1.83"/><path id="path50" d="M234.54,95.66a1.92,1.92,0,0,0,2.16,1.49c1.19,0,1.69-.48,1.69-1.22s-.49-1.21-2.24-1.61c-2.79-.65-3.48-1.68-3.48-3.06,0-1.78,1.34-3,3.76-3,2.72,0,3.8,1.45,3.95,3h-2.23c-.12-.64-.46-1.32-1.78-1.32-.9,0-1.44.37-1.44,1.1s.43,1,2.1,1.38c3,.71,3.62,1.81,3.62,3.27,0,1.86-1.41,3.15-4.12,3.15s-4-1.28-4.21-3.15h2.22"/><path id="path52" d="M245.91,90.24h-3.12V88.43h8.44v1.81h-3.11v8.42h-2.21V90.24"/><path id="path54" d="M255.53,93.49c0,2,.88,3.52,2.69,3.52,2,0,2.68-1.65,2.68-3.47s-.81-3.47-2.71-3.47-2.66,1.43-2.66,3.42Zm7.65,0c0,2.85-1.7,5.3-5,5.3s-4.9-2.33-4.9-5.27,1.85-5.26,5-5.26c3,0,4.9,2.09,4.9,5.23"/><path id="path56" d="M273.88,93.08h1.69c1,0,1.76-.41,1.76-1.44s-.78-1.46-1.71-1.46h-1.74Zm-2.21-4.65h4.23c2.18,0,3.65,1.21,3.65,3.16,0,2.23-1.67,3.25-3.69,3.25h-2v3.82h-2.21V88.43"/><path id="path58" d="M284.87,92.79h1.86c1.2,0,1.68-.46,1.68-1.3s-.55-1.31-1.64-1.31h-1.9Zm0,1.77v4.1H282.7V88.43h4.51c2.22,0,3.43,1.21,3.43,2.8a2.48,2.48,0,0,1-1.49,2.43c.51.19,1.28.71,1.28,2.55v.5a7.68,7.68,0,0,0,.15,2h-2.11a7.23,7.23,0,0,1-.21-2.3v-.15c0-1.11-.28-1.65-1.93-1.65h-1.46"/><path id="path60" d="M301.15,94.25h-4.9v2.6h5.41l-.27,1.81H294.1V88.43h7.26v1.81h-5.11v2.18h4.9v1.83"/><path id="path62" d="M312.21,87.46l-1.95-2h2l1,1,1-1h2l-2,2ZM309.06,97l5.63-6.8h-5.38V88.43h7.89v1.78l-5.42,6.64h5.71l-.28,1.81h-8.15V97"/><path id="path64" d="M322.75,88.43V98.66h-2.21V88.43h2.21"/><path id="path66" d="M329.14,98.66l-3.61-10.23h2.38l1.51,4.72a38.1,38.1,0,0,1,1.06,3.7h0a38,38,0,0,1,1.1-3.67l1.6-4.75h2.26l-3.71,10.23h-2.62"/><path id="path68" d="M339.79,93.49c0,2,.88,3.52,2.69,3.52,2,0,2.67-1.65,2.67-3.47s-.8-3.47-2.7-3.47-2.66,1.43-2.66,3.42Zm7.65,0c0,2.85-1.71,5.3-5,5.3s-4.91-2.33-4.91-5.27,1.86-5.26,5-5.26c3,0,4.9,2.09,4.9,5.23"/><path id="path70" d="M352.7,90.24h-3.12V88.43H358v1.81h-3.11v8.42H352.7V90.24"/><path id="path72" d="M273.1,49l-4.55,5.45V49h-2.73V62.61h2.73V56.72l5.19,5.89h3.55l-6.47-7.28L276.17,49Zm-67.8-1.62h5.2V45.43h-4ZM205.16,49,199.7,62.61h2.91l.82-2.09h6.18l.83,2.09h2.9L207.89,49Zm-.64,8.82,2.08-5.18,2,5.18ZM180.59,49h-6V62.61h2.73V57h3.23q4.77,0,4.77-4.08,0-3.91-4.78-3.92m2.3,4c0,1-.6,1.49-1.7,1.5h-3.82v-2.9h3.85c1.08,0,1.63.51,1.67,1.4m-23.48,2.87a6.68,6.68,0,1,0-2,4.87,6.6,6.6,0,0,0,2-4.87m-2.73,0a4.32,4.32,0,0,1-1.14,3.05,4.16,4.16,0,0,1-5.91,0,4.65,4.65,0,0,1,0-6.1,4.16,4.16,0,0,1,5.91,0,4.32,4.32,0,0,1,1.14,3M108.84,49a5.46,5.46,0,0,0-3.19,1.09A3.41,3.41,0,0,0,104.1,53a3,3,0,0,0,1.36,2.82,7.25,7.25,0,0,0,3,1c1.21.12,2,.44,2.27,1a1.43,1.43,0,0,1,0,1.54c-.3.52-1.06.78-2.27.78a4.37,4.37,0,0,1-3.1-1.28l-1.82,1.82a7,7,0,0,0,2.19,1.46,8.13,8.13,0,0,0,3.17.54,5.51,5.51,0,0,0,3.51-1.18,3.52,3.52,0,0,0,1.51-2.82,3.4,3.4,0,0,0-1.42-3,6.89,6.89,0,0,0-3.13-1.14,3.64,3.64,0,0,1-2.1-.81,1.08,1.08,0,0,1,0-1.32c.31-.52,1-.78,2.1-.78a3.11,3.11,0,0,1,2.54,1.1l1.82-1.82a6.14,6.14,0,0,0-1.95-1.37,7.7,7.7,0,0,0-3-.45m11,0L114.4,62.61h2.91l.82-2.09h6.19l.82,2.09H128L122.59,49Zm-.63,8.82,2.07-5.18,2,5.18ZM131,49h-.91V62.61h2.73V54.7l4.09,4.55L141,54.7v7.91h2.72V49h-.91L136.9,55.7Zm32.66,9.82-1.82,1.82A7,7,0,0,0,164,62.07a8.16,8.16,0,0,0,3.17.54,5.49,5.49,0,0,0,3.51-1.18,3.52,3.52,0,0,0,1.51-2.82,3.44,3.44,0,0,0-1.41-3,7,7,0,0,0-3.14-1.14,3.6,3.6,0,0,1-2.09-.81,1,1,0,0,1,0-1.32c.3-.52,1-.78,2.09-.78a3.14,3.14,0,0,1,2.55,1.1L172,50.79a6.25,6.25,0,0,0-2-1.37,7.7,7.7,0,0,0-2.95-.45,5.48,5.48,0,0,0-3.19,1.09A3.41,3.41,0,0,0,162.38,53a3,3,0,0,0,1.37,2.82,7.26,7.26,0,0,0,3,1c1.21.12,2,.44,2.26,1a1.39,1.39,0,0,1,0,1.54c-.29.52-1,.78-2.26.78a4.37,4.37,0,0,1-3.1-1.28M193.33,49h-6V62.61h2.73V57h2.49l3.27,5.64H199l-3.4-6a3.53,3.53,0,0,0,2.51-3.77q0-3.91-4.78-3.92m-3.22,2.55H194c1.08,0,1.63.51,1.66,1.4s-.59,1.49-1.69,1.5h-3.82ZM217.45,49h-2.91L220,62.61h2.73L228.18,49h-2.91l-4,10Zm13.91,0h-.91V62.61h2.73V54.15l8.46,8.46h1V49h-2.73v8.55Zm16.51,0h-3.2l5,6.82v6.82h2.73V55.79l5-6.82h-3.13L251,53.42Zm37,0h-5.95V62.61h2.73V57h2.49l3.27,5.64h3.13l-3.4-6a3.53,3.53,0,0,0,2.51-3.77q0-3.91-4.78-3.92m-3.22,2.55h3.85c1.08,0,1.64.51,1.66,1.4s-.59,1.49-1.69,1.5h-3.82Zm15-2.55-5.46,13.64h2.91l.82-2.09h6.19l.82,2.09h2.9L299.44,49Zm-.64,8.82,2.08-5.18,2,5.18Zm11.08,2.28h-.9v2.54h1.84A3.43,3.43,0,0,0,311.71,59V49H309v9.1a1.74,1.74,0,0,1-1.83,2"/><path id="path74" d="M41.31,101.2l.12.55v-.55c17.18,0,32.16-10.75,38.16-27.3,2.06-5.68,2-11.38,1.9-17.41,0-.93,0-1.86,0-2.8h0c0-4.37,0-8.75,0-13.12,0-4.78,0-9.73,0-14.59,0-3.43,0-6.86,0-10.29V11.1l-40.11.08L1.19,11.1v4.59c0,3.43,0,6.86,0,10.29,0,4.88,0,9.84,0,14.64q0,6.52,0,13.07c0,.93,0,1.87,0,2.79C1,62.52,1,68.22,3,73.9c6,16.55,21,27.27,38.17,27.3l.12.54Zm.12,1.09h-.24c-17.65,0-33-11-39.2-28-2.12-5.86-2-11.66-2-17.8q0-1.39,0-2.79c0-4.35,0-8.71,0-13.06,0-4.8,0-9.77,0-14.65,0-3.43,0-6.85,0-10.28V10l41.21.07L82.52,10v5.68c0,3.43,0,6.85,0,10.28,0,4.87,0,9.82,0,14.61,0,4.36,0,8.73,0,13.1h0c0,.94,0,1.87,0,2.79.09,6.14.17,11.94-2,17.8-6.16,17-21.55,28-39.19,28"/></g></g></svg>