<svg id="svg2" xmlns="http://www.w3.org/2000/svg" xmlns:xlink="http://www.w3.org/1999/xlink" viewBox="0 0 317.91 106.25"><defs><style>.cls-1{fill:none;}.cls-2{clip-path:url(#clip-path);}</style><clipPath id="clip-path"><rect class="cls-1" x="-60.86" y="-110.7" width="436.43" height="327.32"/></clipPath></defs><g class="cls-2"><path d="M35.4,65.41V18.31c0-5.64-2.74-7.9-8.39-7.9C18.14,10.41,9,13.31.24,17v2.74H13.46V71.54c0,21.77,9.36,30.64,25.81,30.64,10.81,0,21-5,29.52-12.9v1.13C69.43,98.47,74,101.54,84,101.54c6.61,0,15.48-3.87,21-8.55l-.32-1.45H92.17L90.72,59.93V18.8c0-5.65-2.9-8.07-8.71-8.07-8.87,0-17.74,2.74-26.45,6.29v2.74H68.79V84.28c-5,2.26-9.52,4-14.68,4C41,88.31,35.4,81.86,35.4,65.41"/></g><g class="cls-2"><path d="M255.93,89.77c-1.26,0-2-.66-2-2.13,0-1.18.8-1.93,2.44-2.32.62-.15,1.47-.25,2.11-.35V88.9a4.85,4.85,0,0,1-2.54.87m.2-5.19c-2.75.33-5.6,1.26-5.6,4.27,0,1.67,1.28,3,3.44,3a5.75,5.75,0,0,0,4.5-2.47v.38c0,1.44.77,2,2.42,2a6,6,0,0,0,3.34-1.36l0-.23h-2L262,84.89V81.31c0-3.24-2.29-4.06-4.55-4.06a10.25,10.25,0,0,0-5.87,2.29l.24.33a7.45,7.45,0,0,1,3.49-.87c1.67,0,3.19.74,3.19,2.78v2.57ZM244.66,74.7c.47,0,2-1.64,2-2a4.73,4.73,0,0,0-2-2c-.38,0-1.95,1.49-1.95,2a4.55,4.55,0,0,0,1.95,2m1.85,9.85V78.48c0-.9-.43-1.26-1.33-1.26a11.23,11.23,0,0,0-4.27,1.06v.44H243v5.83l-.11,5.1A1.21,1.21,0,0,1,241.83,91l-.77.18a1.21,1.21,0,0,0,.05.41h7.44a1.22,1.22,0,0,0,.07-.41l-1.1-.25a1.11,1.11,0,0,1-.93-1.26Zm-18.85-6.07c0-.9-.43-1.26-1.33-1.26a11.19,11.19,0,0,0-4.27,1.06v.44h2.1v5.83l-.1,5.1A1.21,1.21,0,0,1,223,91l-.77.18a1.21,1.21,0,0,0,0,.41h7.44a1.22,1.22,0,0,0,.07-.41l-1.1-.25a1.11,1.11,0,0,1-.93-1.26l-.08-5.1V80.13a6.52,6.52,0,0,1,2.73-.64c2.06,0,3.09,1,3.11,3.47v1.59l-.1,5.1A1.22,1.22,0,0,1,232.32,91l-.77.18a1.21,1.21,0,0,0,0,.41H239a1.24,1.24,0,0,0,.08-.41L238,90.91a1.11,1.11,0,0,1-.92-1.26l-.08-5.1V82.11c0-3.5-1.59-4.89-4.22-4.89a7.91,7.91,0,0,0-5.12,2.27v-1Zm-14-.41c2,0,2.83,1.91,2.83,5.22h-6.36c.08-3.85,1.52-5.22,3.53-5.22m6.09,6.1v-.62c0-3.55-1.75-6.33-5.89-6.33s-7,3.66-7,7.82c0,4.45,2.06,6.79,6.56,6.79a7.24,7.24,0,0,0,5.73-2.37l-.18-.25a11.21,11.21,0,0,1-3.88.69c-2.8,0-4.68-1.59-4.91-5.63v-.1Zm-38.58-5.45v5.83l-.1,5.1A1.21,1.21,0,0,1,180,91l-.77.18a1.21,1.21,0,0,0,0,.41h7.43a1,1,0,0,0,.08-.41l-1.1-.25a1.11,1.11,0,0,1-.93-1.26l-.08-5.1v-4.5a5.92,5.92,0,0,1,2.45-.56c2,0,3,1,3,3.47v1.59l-.11,5.1A1.21,1.21,0,0,1,188.93,91l-.77.18a1.21,1.21,0,0,0,.05.41h7.44a1.22,1.22,0,0,0,.07-.41l-1.1-.26a1.1,1.1,0,0,1-.93-1.26l-.08-5.09V82.11a8.76,8.76,0,0,0-.2-2,6.28,6.28,0,0,1,2.67-.66c2.06,0,3,1,3,3.47v1.59l-.1,5.09A1.22,1.22,0,0,1,197.91,91l-.77.18a1.21,1.21,0,0,0,.05.41h7.46a1.34,1.34,0,0,0,.08-.41l-1.14-.26a1.1,1.1,0,0,1-.92-1.26l-.08-5.09V82.11c0-3.5-1.49-4.89-4.11-4.89a7.6,7.6,0,0,0-5.2,2.47,3.61,3.61,0,0,0-3.81-2.47,7.37,7.37,0,0,0-4.8,2.24v-1c0-.9-.44-1.26-1.34-1.26a11.23,11.23,0,0,0-4.27,1.06v.43h2.1Zm-15,7.27V78.48c0-.9-.44-1.26-1.34-1.26a11.28,11.28,0,0,0-4.27,1.06v.44h2.11V87c0,3.47,1.49,4.89,4.12,4.89a7,7,0,0,0,4.7-2.06V90c.11,1.29.83,1.77,2.42,1.77a5.83,5.83,0,0,0,3.34-1.36l0-.23h-2l-.23-5V78.56c0-.9-.46-1.29-1.39-1.29a11.33,11.33,0,0,0-4.22,1v.44h2.11V89a5.56,5.56,0,0,1-2.34.65c-2.08,0-3-1-3-3.66"/></g><g class="cls-2"><path d="M306.87,55.49V48c0-.9-.43-1.26-1.33-1.26a11.23,11.23,0,0,0-4.27,1.06v.44h2.11v8.25c0,3.47,1.49,4.89,4.11,4.89a7,7,0,0,0,4.71-2.06v.18c.1,1.29.82,1.77,2.42,1.77A5.85,5.85,0,0,0,318,59.89l0-.23h-2l-.23-5V48.06c0-.9-.47-1.28-1.39-1.28a11.27,11.27,0,0,0-4.22,1v.44h2.11V58.5a5.64,5.64,0,0,1-2.34.65c-2.09,0-3-1-3-3.66m-16.61-7.27v5.83l-.1,5.1a1.22,1.22,0,0,1-1.08,1.33l-.77.18a1.3,1.3,0,0,0,.05.42h7.43a1.35,1.35,0,0,0,.08-.42l-1.11-.25a1.11,1.11,0,0,1-.92-1.26l-.08-5.1V50a5.29,5.29,0,0,1,2.73-.8,5.13,5.13,0,0,1,2.46.59l.88-2.75a4.49,4.49,0,0,0-1.65-.31,5.24,5.24,0,0,0-4.42,2.76V48c0-.9-.44-1.26-1.34-1.26a11.28,11.28,0,0,0-4.27,1.06v.44ZM282,54.29c0,3.8-.77,6.25-3.09,6.25-2.67,0-3.39-2.94-3.39-6.77s.69-6.25,3.08-6.25c2.86,0,3.4,3.71,3.4,6.77m3.73-.42c0-4.86-2.47-7.15-6.84-7.15-4,0-7.08,3.84-7.08,7.59,0,4.84,2.4,7,6.85,7,4.14,0,7.07-3.94,7.07-7.49m-20.5.18c0,3.78-1.16,6.28-3.7,6.28a5,5,0,0,1-2.11-.39l0-6.53V49.14a7.57,7.57,0,0,1,2.39-.56c2.26,0,3.47,1.28,3.47,5.47m3.65-.48c0-4.66-1.87-6.82-5.5-6.82a5.85,5.85,0,0,0-4,1.8V48c0-.9-.44-1.26-1.34-1.26a11.28,11.28,0,0,0-4.27,1.06v.44h2.11V53.8l-.21,11a1.21,1.21,0,0,1-1.08,1.34l-.77.18a1.21,1.21,0,0,0,.05.41h7.59a1.34,1.34,0,0,0,.08-.41l-1.11-.26a1.1,1.1,0,0,1-.92-1.26l-.05-3.65a12,12,0,0,0,1.87.13c4.17,0,7.56-2.44,7.56-7.71M244.1,59.51c-2,0-3.76-1.68-3.76-5.94,0-3.91,1.21-6,3.88-6a4.84,4.84,0,0,1,2.09.46v11a6.44,6.44,0,0,1-2.21.42m4.65,1.75a5.89,5.89,0,0,0,3.34-1.37l-.05-.23h-2l-.25-5.5V42.53c0-.9-.44-1.26-1.34-1.26a10.74,10.74,0,0,0-4.27,1.08v.41h2.11v4.17a16,16,0,0,0-2.19-.13c-4,0-7.25,3-7.25,7.69,0,5.69,2.91,6.77,5.58,6.77a6.2,6.2,0,0,0,3.88-1.62c.13,1.15.88,1.62,2.42,1.62m-18.46-7c0,3.8-.78,6.25-3.09,6.25-2.67,0-3.4-2.94-3.4-6.77s.7-6.25,3.09-6.25c2.86,0,3.4,3.71,3.4,6.77m3.72-.42c0-4.86-2.46-7.15-6.84-7.15-4,0-7.07,3.84-7.07,7.59,0,4.84,2.39,7,6.84,7,4.14,0,7.07-3.94,7.07-7.49m-20.49.18c0,3.78-1.16,6.28-3.71,6.28a4.94,4.94,0,0,1-2.1-.39l-.06-6.53V49.14a7.71,7.71,0,0,1,2.4-.56c2.26,0,3.47,1.28,3.47,5.47m3.65-.48c0-4.66-1.88-6.82-5.5-6.82a5.87,5.87,0,0,0-4,1.8V48c0-.9-.43-1.26-1.33-1.26a11.23,11.23,0,0,0-4.27,1.06v.44h2.11V53.8l-.21,11a1.22,1.22,0,0,1-1.08,1.34l-.77.18a1.21,1.21,0,0,0,.05.41h7.59a1.31,1.31,0,0,0,.07-.41l-1.1-.26a1.1,1.1,0,0,1-.93-1.26l-.05-3.65a12,12,0,0,0,1.88.13c4.16,0,7.56-2.44,7.56-7.71m-32,5.7c-1.26,0-2-.66-2-2.13,0-1.18.8-1.93,2.44-2.31.62-.16,1.47-.26,2.11-.36V58.4a4.86,4.86,0,0,1-2.55.87m.21-5.19c-2.75.33-5.61,1.26-5.61,4.27,0,1.67,1.29,3,3.45,3a5.76,5.76,0,0,0,4.5-2.47v.38c.05,1.44.77,2,2.42,2a6,6,0,0,0,3.34-1.37l0-.23h-2l-.23-5.27V50.81c0-3.24-2.29-4.06-4.55-4.06A10.32,10.32,0,0,0,180.75,49l.23.33a7.53,7.53,0,0,1,3.5-.87c1.67,0,3.19.75,3.19,2.78v2.57ZM166.48,48c0-.9-.44-1.26-1.34-1.26a11.28,11.28,0,0,0-4.27,1.06v.44H163v5.83l-.1,5.1a1.22,1.22,0,0,1-1.08,1.33l-.77.18a1.3,1.3,0,0,0,.05.42h7.43a1.35,1.35,0,0,0,.08-.42l-1.11-.25a1.11,1.11,0,0,1-.92-1.26l-.08-5.1V49.63a6.45,6.45,0,0,1,2.73-.64c2,0,3.08.95,3.11,3.47v1.59l-.1,5.1a1.22,1.22,0,0,1-1.08,1.33l-.78.18a1,1,0,0,0,.06.41h7.43a1.24,1.24,0,0,0,.08-.41l-1.11-.25a1.11,1.11,0,0,1-.93-1.26l-.07-5.1V51.61c0-3.5-1.6-4.89-4.22-4.89A7.88,7.88,0,0,0,166.48,49V48Z"/></g><g class="cls-2"><path d="M215,29.19c-2,0-3.76-1.67-3.76-5.94,0-3.91,1.21-6,3.89-6a4.69,4.69,0,0,1,2.08.47v11a6.63,6.63,0,0,1-2.21.41m4.65,1.75A6,6,0,0,0,223,29.58l0-.24h-2l-.26-5.5V12.22c0-.9-.44-1.26-1.34-1.26A10.78,10.78,0,0,0,215.11,12v.41h2.11v4.16a17.77,17.77,0,0,0-2.19-.12c-4,0-7.25,3-7.25,7.69,0,5.68,2.91,6.76,5.58,6.76a6.22,6.22,0,0,0,3.89-1.62c.13,1.16.87,1.62,2.41,1.62M194.13,17.67c0-.9-.44-1.26-1.34-1.26a11.22,11.22,0,0,0-4.27,1.05v.44h2.11v5.84l-.1,5.09a1.22,1.22,0,0,1-1.08,1.34l-.78.18a1,1,0,0,0,.06.41h7.43a1.34,1.34,0,0,0,.08-.41l-1.11-.26a1.11,1.11,0,0,1-.93-1.26l-.07-5.09V19.31a6.44,6.44,0,0,1,2.72-.64c2.06,0,3.09.95,3.11,3.47v1.6l-.1,5.09a1.22,1.22,0,0,1-1.08,1.34l-.77.18a1.24,1.24,0,0,0,.05.41h7.44a1.31,1.31,0,0,0,.07-.41l-1.1-.26a1.11,1.11,0,0,1-.93-1.26l-.08-5.09V21.29c0-3.49-1.59-4.88-4.21-4.88a7.85,7.85,0,0,0-5.12,2.26v-1ZM182.35,24c0,3.81-.77,6.25-3.09,6.25-2.67,0-3.39-2.93-3.39-6.77,0-3.67.69-6.25,3.08-6.25,2.86,0,3.4,3.71,3.4,6.77m3.73-.41c0-4.86-2.47-7.15-6.84-7.15-4,0-7.08,3.83-7.08,7.59,0,4.83,2.39,7,6.84,7,4.14,0,7.08-3.93,7.08-7.48M173.32,12.88c0-1.28-1.95-1.92-4.4-1.92-2.8,0-5.91,2.31-5.91,5.14v1.44l-2.06.23v.85H163v5.12l-.11,5.09a1.21,1.21,0,0,1-1.08,1.34l-.77.18a1.24,1.24,0,0,0,0,.41h7.46a1.34,1.34,0,0,0,.08-.41l-1.11-.26a1.11,1.11,0,0,1-.92-1.26l-.08-5.09V18.62h3.06V17.54h-3.06V15.92c0-2.21.28-4.19,2.52-4.19,1.16,0,2,1.46,2.83,2.83.77-.34,1.44-.78,1.44-1.68"/></g><g class="cls-2"><path d="M137.25,92.15c0-2.92-9.18-11.81-12-11.81s-11.81,8.75-11.81,11.81c0,2.91,9,12.09,11.81,12.09s12-9.32,12-12.09"/></g></svg>